<svg width="50" height="48" viewBox="0 0 50 48" fill="none" xmlns="http://www.w3.org/2000/svg">
<rect x="0.5" y="0.5" width="49" height="47" rx="23.5" fill="white"/>
<rect x="0.5" y="0.5" width="49" height="47" rx="23.5" stroke="#E7F0FD"/>
<g clip-path="url(#clip0_41_1313)">
<path d="M28.3248 10.5687C26.4436 11.5094 25.2186 13.2812 24.8904 15.5125L24.7373 16.5625H25.5248C27.9092 16.5625 30.3373 14.0031 30.6217 11.1813L30.7529 10H30.0967C29.7467 10 28.9592 10.2625 28.3248 10.5687Z" fill="#333333"/>
<path d="M28.2812 17C27.4937 17.2406 26.4437 17.525 25.9624 17.6781C25.153 17.9188 24.8687 17.8969 23.2937 17.3719C21.1718 16.6719 19.7499 16.6281 18.153 17.2188C13.9749 18.7938 12.3562 24.3938 14.3905 30.3656C15.3312 33.1438 17.3218 36.1844 18.9187 37.3438C20.0343 38.1531 21.2812 38.2188 23.1624 37.5406C24.803 36.9719 26.2905 36.9719 27.9312 37.5406C29.878 38.2406 31.103 38.1531 32.2624 37.2781C33.3343 36.4469 34.7562 34.5438 35.6749 32.6406C36.6593 30.65 36.6812 30.4531 36.0687 30.1688C34.1437 29.2938 32.8749 27.15 32.8749 24.7656C32.8749 22.8625 33.3343 21.7906 34.6905 20.5438C35.2593 20.0406 35.7187 19.5375 35.7187 19.4281C35.7187 19.3188 35.2593 18.8375 34.7124 18.3344C33.0062 16.8469 30.5999 16.3438 28.2812 17Z" fill="#333333"/>
</g>
<defs>
<clipPath id="clip0_41_1313">
<rect width="28" height="28" fill="white" transform="translate(11 10)"/>
</clipPath>
</defs>
</svg>
