<svg width="110" height="140" viewBox="0 0 110 140" fill="none" xmlns="http://www.w3.org/2000/svg">
<path d="M93.3935 0.801514H25.5801C20.1775 0.801514 15.7977 5.56262 15.7977 11.4357V128.572C15.7977 134.446 20.1775 139.207 25.5801 139.207H93.3935C98.7961 139.207 103.176 134.446 103.176 128.572V11.4357C103.176 5.56262 98.7961 0.801514 93.3935 0.801514Z" fill="#3886E9"/>
<path d="M93.4008 140H25.5801C22.792 139.998 20.1186 138.793 18.1464 136.651C16.1742 134.509 15.0645 131.603 15.0605 128.572V11.4276C15.0645 8.39674 16.1742 5.49134 18.1464 3.34894C20.1186 1.20654 22.792 0.00214478 25.5801 2.5291e-05H93.4008C94.7842 -0.00313516 96.1546 0.28994 97.4338 0.86252C98.713 1.4351 99.876 2.27597 100.856 3.33712C101.836 4.39827 102.615 5.65892 103.147 7.04709C103.679 8.43526 103.954 9.92376 103.957 11.4276V128.572C103.954 130.076 103.679 131.565 103.147 132.953C102.615 134.341 101.836 135.602 100.856 136.663C99.876 137.724 98.713 138.565 97.4338 139.137C96.1546 139.71 94.7842 140.003 93.4008 140ZM25.5801 1.60277C23.1831 1.60489 20.8846 2.64043 19.1889 4.48226C17.4933 6.32408 16.5388 8.82182 16.5349 11.4276V128.572C16.5388 131.178 17.4933 133.676 19.1889 135.518C20.8846 137.36 23.1831 138.395 25.5801 138.397H93.4008C94.5909 138.401 95.77 138.151 96.8708 137.659C97.9715 137.167 98.9723 136.444 99.8158 135.532C100.659 134.619 101.329 133.535 101.787 132.341C102.244 131.147 102.481 129.866 102.483 128.572V11.4276C102.479 8.82182 101.525 6.32408 99.8289 4.48226C98.1332 2.64043 95.8348 1.60489 93.4377 1.60277H25.5801Z" fill="#333333"/>
<path d="M103.176 12.5493H15.7977V123.572H103.176V12.5493Z" fill="#CDE1F9"/>
<path d="M103.22 124.381H15.7977C15.6022 124.381 15.4147 124.297 15.2765 124.146C15.1382 123.996 15.0605 123.792 15.0605 123.58V12.5495C15.0605 12.337 15.1382 12.1332 15.2765 11.9829C15.4147 11.8326 15.6022 11.7482 15.7977 11.7482H103.22C103.416 11.7482 103.603 11.8326 103.741 11.9829C103.88 12.1332 103.957 12.337 103.957 12.5495V123.58C103.957 123.792 103.88 123.996 103.741 124.146C103.603 124.297 103.416 124.381 103.22 124.381ZM16.5718 122.778H102.483V13.3509H16.5349L16.5718 122.778Z" fill="#333333"/>
<path d="M89.0663 27.3907H4.20193C2.2884 27.3907 0.737183 29.077 0.737183 31.1572V99.29C0.737183 101.37 2.2884 103.056 4.20193 103.056H89.0663C90.9798 103.056 92.5311 101.37 92.5311 99.29V31.1572C92.5311 29.077 90.9798 27.3907 89.0663 27.3907Z" fill="white"/>
<path d="M89.0737 103.858H4.20193C3.08811 103.856 2.02046 103.374 1.23287 102.518C0.445276 101.661 0.00194895 100.501 0 99.29V31.1733C0.00194895 29.9625 0.445276 28.8019 1.23287 27.9457C2.02046 27.0895 3.08811 26.6076 4.20193 26.6055H89.0737C90.1875 26.6076 91.2551 27.0895 92.0427 27.9457C92.8303 28.8019 93.2737 29.9625 93.2756 31.1733V99.29C93.2737 100.501 92.8303 101.661 92.0427 102.518C91.2551 103.374 90.1875 103.856 89.0737 103.858ZM4.20193 28.1922C3.47854 28.1922 2.78477 28.5046 2.27325 29.0606C1.76173 29.6167 1.47436 30.3709 1.47436 31.1573V99.274C1.47436 100.06 1.76173 100.815 2.27325 101.371C2.78477 101.927 3.47854 102.239 4.20193 102.239H89.0737C89.7971 102.239 90.4908 101.927 91.0024 101.371C91.5139 100.815 91.8012 100.06 91.8012 99.274V31.1573C91.8012 30.3709 91.5139 29.6167 91.0024 29.0606C90.4908 28.5046 89.7971 28.1922 89.0737 28.1922H4.20193Z" fill="#333333"/>
<path d="M40.3239 51.7366C40.1524 51.7408 39.9851 51.6798 39.8505 51.5643C39.716 51.4487 39.6227 51.2858 39.5867 51.1036L38.0018 43.1539C37.5894 40.8591 38.021 38.48 39.2039 36.5272C40.3868 34.5743 42.2267 33.2033 44.3288 32.7083C46.4309 32.2133 48.6278 32.6338 50.448 33.8795C52.2682 35.1252 53.5668 37.0969 54.065 39.3715C54.0853 39.4767 54.0863 39.5853 54.0681 39.6909C54.0498 39.7966 54.0126 39.8974 53.9585 39.9874C53.9044 40.0774 53.8346 40.155 53.7529 40.2157C53.6712 40.2764 53.5794 40.319 53.4826 40.3411C53.3858 40.3632 53.2859 40.3644 53.1887 40.3445C53.0915 40.3247 52.9988 40.2842 52.916 40.2254C52.8331 40.1666 52.7618 40.0907 52.7059 40.0019C52.6501 39.9131 52.6109 39.8133 52.5906 39.708C52.3074 38.2924 51.6445 36.9999 50.6856 35.9939C49.7267 34.9879 48.5149 34.3136 47.2035 34.0562C45.892 33.7989 44.5398 33.9701 43.3179 34.5482C42.096 35.1263 41.0592 36.0853 40.3386 37.3039C39.8553 38.1116 39.5249 39.0158 39.3667 39.9638C39.2085 40.9119 39.2257 41.8846 39.4171 42.8254L41.0021 50.775C41.0414 50.9822 41.0038 51.1978 40.8975 51.3749C40.7912 51.5521 40.6247 51.6763 40.4345 51.7206C40.3982 51.73 40.3611 51.7353 40.3239 51.7366Z" fill="#333333"/>
<path d="M36.0702 49.3967H57.3379V62.2187C57.3379 63.1848 57.1629 64.1414 56.8228 65.034C56.4827 65.9265 55.9842 66.7375 55.3558 67.4206C54.7274 68.1037 53.9814 68.6456 53.1604 69.0153C52.3393 69.385 51.4593 69.5753 50.5706 69.5753H42.8302C41.9415 69.5753 41.0615 69.385 40.2405 69.0153C39.4194 68.6456 38.6734 68.1037 38.045 67.4206C37.4166 66.7375 36.9181 65.9265 36.578 65.034C36.2379 64.1414 36.0629 63.1848 36.0629 62.2187V49.3967H36.0702Z" fill="#3886E9"/>
<path d="M50.5781 70.3686H42.8377C40.8486 70.3644 38.942 69.5035 37.5355 67.9745C36.129 66.4455 35.3371 64.373 35.3332 62.2106V49.3887C35.3332 49.1761 35.4109 48.9723 35.5491 48.822C35.6874 48.6717 35.8749 48.5873 36.0704 48.5873H57.3455C57.541 48.5873 57.7285 48.6717 57.8667 48.822C58.005 48.9723 58.0826 49.1761 58.0826 49.3887V62.2106C58.0787 64.373 57.2868 66.4455 55.8803 67.9745C54.4738 69.5035 52.5672 70.3644 50.5781 70.3686ZM36.8076 50.198V62.2186C36.8095 63.9565 37.4455 65.6227 38.5759 66.8516C39.7064 68.0804 41.239 68.7718 42.8377 68.7739H50.5781C52.1768 68.7718 53.7095 68.0804 54.8399 66.8516C55.9704 65.6227 56.6063 63.9565 56.6083 62.2186V50.198H36.8076Z" fill="#333333"/>
<path d="M46.8333 58.7568C48.0384 58.7568 49.0154 57.6948 49.0154 56.3848C49.0154 55.0747 48.0384 54.0127 46.8333 54.0127C45.6282 54.0127 44.6512 55.0747 44.6512 56.3848C44.6512 57.6948 45.6282 58.7568 46.8333 58.7568Z" fill="#333333"/>
<path d="M46.8332 59.5824C46.25 59.5824 45.6799 59.3944 45.195 59.0422C44.7101 58.6899 44.3322 58.1893 44.109 57.6036C43.8858 57.0178 43.8274 56.3733 43.9412 55.7515C44.055 55.1297 44.3358 54.5585 44.7482 54.1103C45.1606 53.662 45.686 53.3567 46.258 53.233C46.83 53.1093 47.4229 53.1728 47.9617 53.4154C48.5005 53.658 48.961 54.0689 49.285 54.596C49.609 55.1231 49.782 55.7429 49.782 56.3769C49.782 57.227 49.4713 58.0424 48.9183 58.6435C48.3653 59.2447 47.6153 59.5824 46.8332 59.5824ZM46.8332 54.8463C46.5416 54.8463 46.2566 54.9403 46.0141 55.1164C45.7717 55.2925 45.5827 55.5428 45.4711 55.8357C45.3595 56.1285 45.3303 56.4508 45.3872 56.7617C45.4441 57.0726 45.5845 57.3582 45.7907 57.5823C45.9969 57.8065 46.2596 57.9591 46.5456 58.021C46.8316 58.0828 47.1281 58.0511 47.3975 57.9297C47.6669 57.8084 47.8971 57.603 48.0591 57.3394C48.2211 57.0759 48.3076 56.766 48.3076 56.449C48.3115 56.2358 48.2763 56.024 48.204 55.8258C48.1316 55.6276 48.0237 55.4472 47.8864 55.2949C47.7491 55.1427 47.5852 55.0217 47.4044 54.9392C47.2235 54.8567 47.0294 54.8142 46.8332 54.8142V54.8463Z" fill="#333333"/>
<path d="M46.833 65.1918C46.6375 65.1918 46.45 65.1073 46.3117 64.957C46.1735 64.8068 46.0958 64.6029 46.0958 64.3904V57.2822C46.0958 57.0697 46.1735 56.8658 46.3117 56.7156C46.45 56.5653 46.6375 56.4808 46.833 56.4808C47.0285 56.4808 47.216 56.5653 47.3543 56.7156C47.4925 56.8658 47.5702 57.0697 47.5702 57.2822V64.3904C47.5702 64.6029 47.4925 64.8068 47.3543 64.957C47.216 65.1073 47.0285 65.1918 46.833 65.1918Z" fill="#333333"/>
<path d="M98.0599 48.1144C99.9902 48.2342 101.864 48.8681 103.516 49.9601C105.168 51.0522 106.548 52.569 107.534 54.377C108.52 56.1851 109.082 58.2289 109.17 60.3285C109.259 62.4282 108.871 64.5193 108.041 66.4178C107.025 68.7885 105.352 70.7545 103.257 72.0405C101.162 73.3266 98.7494 73.8684 96.357 73.5901C94.3114 73.4201 92.3461 72.6518 90.6694 71.3666C88.9927 70.0813 87.667 68.3271 86.8326 66.2896C86.6557 65.8969 86.4493 65.6725 86.0365 65.7366C84.4144 65.9501 82.7759 65.5204 81.4217 64.5266L81.3332 64.4705C81.2227 64.3888 81.0905 64.3492 80.9571 64.3579C80.8237 64.3666 80.6968 64.4231 80.596 64.5186C79.8589 65.0555 79.1217 65.5443 78.4508 66.1213C78.3141 66.261 78.1335 66.3388 77.9459 66.3388C77.7582 66.3388 77.5776 66.261 77.4409 66.1213C76.7701 65.5924 76.0624 65.1276 75.3842 64.6147C75.2808 64.5208 75.1503 64.4694 75.0156 64.4694C74.8809 64.4694 74.7504 64.5208 74.647 64.6147C73.9098 65.1597 73.1726 65.6565 72.4355 66.2175C72.375 66.2896 72.2997 66.3452 72.2156 66.3796C72.1316 66.414 72.0412 66.4262 71.952 66.4152C71.8628 66.4043 71.7772 66.3705 71.7024 66.3166C71.6275 66.2627 71.5655 66.1903 71.5213 66.1053C71.1454 65.6325 70.7031 65.2158 70.305 64.759C70.2678 64.7002 70.2193 64.6509 70.1627 64.6147C70.1062 64.5784 70.043 64.5561 69.9777 64.5492C69.9123 64.5423 69.8464 64.5511 69.7845 64.5749C69.7226 64.5986 69.6663 64.6369 69.6194 64.6868C68.9412 65.1997 68.2409 65.6805 67.5627 66.1934C67.4548 66.3033 67.3124 66.3644 67.1646 66.3644C67.0167 66.3644 66.8744 66.3033 66.7665 66.1934C65.2332 64.9326 63.6925 63.6851 62.1444 62.451C61.8127 62.1866 61.7758 62.0022 62.0928 61.6496C63.5033 60.1484 64.8941 58.6338 66.2652 57.1059C66.4188 56.921 66.6083 56.7755 66.8199 56.6798C67.0315 56.5842 67.2601 56.5409 67.489 56.5529C73.5633 56.5529 79.6377 56.5529 85.7121 56.5529C85.9207 56.5785 86.131 56.5245 86.3071 56.4003C86.4833 56.2761 86.6143 56.0893 86.6778 55.8717C88.7788 50.8712 92.4352 48.3629 97.4333 48.0583L98.0599 48.1144ZM98.4285 56.6731C97.9065 56.6483 97.3853 56.7387 96.8964 56.9387C96.4074 57.1388 95.9607 57.4444 95.5833 57.8372C95.2059 58.2299 94.9056 58.7016 94.7004 59.224C94.4952 59.7463 94.3894 60.3084 94.3894 60.8763C94.3894 61.4443 94.4952 62.0063 94.7004 62.5287C94.9056 63.051 95.2059 63.5227 95.5833 63.9155C95.9607 64.3082 96.4074 64.6138 96.8964 64.8139C97.3853 65.0139 97.9065 65.1043 98.4285 65.0795C99.4247 65.0322 100.366 64.5687 101.055 63.7856C101.745 63.0026 102.13 61.9604 102.13 60.8763C102.13 59.7923 101.745 58.7501 101.055 57.967C100.366 57.1839 99.4247 56.7204 98.4285 56.6731Z" fill="#FFB701"/>
<path d="M97.5293 74.4635C97.1033 74.4632 96.6777 74.4392 96.254 74.3914C94.0821 74.2107 91.9955 73.3952 90.2151 72.031C88.4347 70.6669 87.0266 68.8049 86.1398 66.6421C86.1398 66.594 86.103 66.5539 86.0882 66.5299C84.2985 66.7632 82.4912 66.2912 80.9943 65.1996C80.6331 65.4721 80.3161 65.6965 79.9991 65.9209C79.6821 66.1452 79.2619 66.4738 78.8639 66.7623C78.5989 67.0022 78.265 67.1335 77.9203 67.1335C77.5755 67.1335 77.2416 67.0022 76.9767 66.7623C76.6154 66.4738 76.2395 66.2013 75.8562 65.9609L74.9863 65.3278C74.6619 65.5763 74.3597 65.7846 74.0648 66.001C73.6593 66.2895 73.2539 66.578 72.8558 66.8905C72.7207 67.0203 72.562 67.1179 72.39 67.177C72.2181 67.236 72.0366 67.2552 71.8574 67.2333C71.6782 67.2114 71.5052 67.1489 71.3495 67.0498C71.1939 66.9508 71.0591 66.8173 70.9539 66.6581C70.7475 66.4097 70.5263 66.1693 70.3052 65.9369L69.885 65.4801C69.568 65.7125 69.2731 65.9289 68.9709 66.1372C68.6686 66.3456 68.3 66.6261 67.9683 66.8745C67.7335 67.0842 67.4391 67.1988 67.1353 67.1988C66.8315 67.1988 66.537 67.0842 66.3023 66.8745C64.7788 65.619 63.243 64.3742 61.6949 63.1401C61.5405 63.0357 61.4094 62.8952 61.3113 62.7289C61.2131 62.5625 61.1502 62.3745 61.1273 62.1784C61.1223 61.9803 61.1589 61.7835 61.2342 61.603C61.3096 61.4225 61.4217 61.263 61.5622 61.1367C63.0955 59.5339 64.4593 58.0193 65.7273 56.6089C65.9482 56.3486 66.2177 56.1425 66.5177 56.0043C66.8177 55.8661 67.1413 55.799 67.467 55.8075H76.2321H85.7049C85.766 55.8172 85.8281 55.8172 85.8892 55.8075C85.9337 55.7535 85.9687 55.691 85.9924 55.6232C88.1671 50.4463 92.0004 47.6656 97.3819 47.337C97.4112 47.333 97.4409 47.333 97.4703 47.337H97.7062H98.0969C99.8861 47.3858 101.642 47.8765 103.23 48.772C104.819 49.6676 106.2 50.9444 107.267 52.5059C108.755 54.4804 109.681 56.8839 109.931 59.4219C110.181 61.9599 109.745 64.522 108.675 66.7943C107.68 69.0917 106.102 71.0331 104.128 72.3913C102.154 73.7495 99.8654 74.4683 97.5293 74.4635ZM86.1398 64.9191C86.4284 64.9289 86.7079 65.0306 86.9438 65.2115C87.1797 65.3924 87.3615 65.6446 87.4668 65.9369C88.2483 67.85 89.4915 69.4977 91.0644 70.7054C92.6373 71.913 94.4814 72.6356 96.4014 72.7966C98.641 73.0538 100.899 72.5451 102.86 71.3413C104.821 70.1376 106.387 68.2987 107.341 66.0811C108.297 64.0749 108.686 61.8064 108.459 59.5607C108.232 57.3151 107.399 55.1924 106.066 53.4595C105.12 52.0829 103.898 50.9585 102.493 50.1712C101.088 49.384 99.537 48.9546 97.9569 48.9157H97.5367H97.3524C92.5164 49.2202 89.2434 51.6243 87.2604 56.2643C87.1411 56.6208 86.9184 56.9255 86.6258 57.1322C86.3332 57.339 85.9867 57.4366 85.6385 57.4103H76.1731H67.4302C67.3019 57.3988 67.173 57.4205 67.0539 57.4734C66.9347 57.5263 66.8288 57.609 66.7446 57.7148C65.5356 59.0691 64.2382 60.4795 62.7785 62.0342C64.2529 63.1988 65.6978 64.3715 67.1132 65.5522C67.4744 65.2797 67.7988 65.0473 68.1231 64.823L69.1478 64.0697C69.3886 63.8581 69.6967 63.7588 70.0047 63.7933C70.3127 63.8278 70.5957 63.9935 70.7917 64.254L71.3004 64.8069C71.5363 65.0554 71.7722 65.3118 71.9933 65.6083C72.3914 65.2878 72.8042 64.9993 73.217 64.7028L74.1459 64.0216C74.3742 63.8273 74.6558 63.7217 74.9457 63.7217C75.2357 63.7217 75.5173 63.8273 75.7456 64.0216L76.6302 64.6627C77.0283 64.9512 77.4337 65.2317 77.817 65.5442C77.817 65.5442 77.8687 65.5442 77.876 65.5923L77.9645 65.5282C78.3552 65.2237 78.7533 64.9352 79.1514 64.6467C79.5494 64.3582 79.7927 64.1899 80.1097 63.9495C80.3309 63.7594 80.6013 63.6495 80.8829 63.6351C81.1646 63.6207 81.4433 63.7027 81.6799 63.8693L81.7905 63.9334C82.9974 64.8339 84.4663 65.2217 85.9187 65.0233L86.1398 64.9191ZM98.4139 65.8808C97.1748 65.8795 95.9869 65.3433 95.1113 64.3902C94.6832 63.9307 94.344 63.3827 94.1135 62.7786C93.8831 62.1744 93.7662 61.5262 93.7697 60.8722C93.7813 59.55 94.2711 58.2858 95.1333 57.3531C95.9955 56.4203 97.1607 55.8939 98.377 55.8877C98.9782 55.8806 99.5747 56.0038 100.132 56.2501C100.689 56.4964 101.195 56.8608 101.621 57.3221C102.26 58.0233 102.695 58.9135 102.873 59.8817C103.05 60.85 102.962 61.8535 102.618 62.7675C102.275 63.6815 101.692 64.4655 100.942 65.0219C100.191 65.5783 99.3073 65.8826 98.3992 65.8968L98.4139 65.8808ZM98.4139 57.4744C97.586 57.4806 96.7936 57.8404 96.2075 58.476C95.6214 59.1117 95.2886 59.9723 95.2809 60.8722C95.276 61.3193 95.3544 61.7628 95.5115 62.176C95.6687 62.5892 95.9011 62.9635 96.195 63.2763C96.7898 63.9297 97.5979 64.3012 98.4434 64.3101C98.8527 64.3123 99.2583 64.2256 99.6364 64.0551C100.014 63.8846 100.357 63.6338 100.645 63.3173C100.933 63.0008 101.159 62.625 101.312 62.2121C101.464 61.7991 101.539 61.3572 101.532 60.9123C101.535 60.012 101.209 59.1473 100.625 58.5081C100.334 58.1953 99.9889 57.9484 99.6092 57.782C99.2296 57.6155 98.8232 57.5327 98.4139 57.5385V57.4744Z" fill="#333333"/>
<path d="M74.6469 96.3733H18.6211C16.748 96.369 14.9528 95.5577 13.629 94.1172C12.3052 92.6766 11.5608 90.7243 11.5589 88.6881V82.6457C11.5608 80.6095 12.3052 78.6572 13.629 77.2167C14.9528 75.7761 16.748 74.9648 18.6211 74.9606H74.6469C76.52 74.9648 78.3151 75.7761 79.6389 77.2167C80.9627 78.6572 81.7071 80.6095 81.7091 82.6457V88.6881C81.7071 90.7243 80.9627 92.6766 79.6389 94.1172C78.3151 95.5577 76.52 96.369 74.6469 96.3733ZM18.6211 76.5633C17.1384 76.5654 15.7171 77.2072 14.6694 78.3477C13.6217 79.4881 13.0332 81.034 13.0332 82.6457V88.6881C13.0352 90.2992 13.6243 91.8439 14.6716 92.9839C15.7189 94.1238 17.139 94.7663 18.6211 94.7705H74.6469C76.1289 94.7663 77.5491 94.1238 78.5964 92.9839C79.6437 91.8439 80.2328 90.2992 80.2347 88.6881V82.6457C80.2347 81.034 79.6462 79.4881 78.5985 78.3477C77.5508 77.2072 76.1295 76.5654 74.6469 76.5633H18.6211Z" fill="white"/>
<path d="M23.2286 91.6369C23.0331 91.6369 22.8456 91.5525 22.7074 91.4022C22.5691 91.2519 22.4915 91.0481 22.4915 90.8355V80.5058C22.4915 80.2933 22.5691 80.0895 22.7074 79.9392C22.8456 79.7889 23.0331 79.7045 23.2286 79.7045C23.4241 79.7045 23.6117 79.7889 23.7499 79.9392C23.8882 80.0895 23.9658 80.2933 23.9658 80.5058V90.8355C23.9658 91.0481 23.8882 91.2519 23.7499 91.4022C23.6117 91.5525 23.4241 91.6369 23.2286 91.6369Z" fill="#333333"/>
<path d="M19.1005 89.0006C18.9706 89.0011 18.8428 88.9643 18.7302 88.894C18.6176 88.8236 18.5241 88.7222 18.4591 88.5999C18.4107 88.5079 18.3795 88.4064 18.3674 88.3013C18.3552 88.1962 18.3624 88.0895 18.3884 87.9874C18.4145 87.8853 18.4589 87.7898 18.5191 87.7065C18.5793 87.6232 18.6542 87.5537 18.7392 87.502L26.9957 82.4293C27.1668 82.323 27.3697 82.295 27.5597 82.3513C27.7498 82.4077 27.9116 82.5438 28.0093 82.7298C28.1071 82.9158 28.1329 83.1363 28.081 83.343C28.0292 83.5496 27.9039 83.7254 27.7329 83.8317L19.4691 88.8964C19.3567 88.9656 19.2296 89.0015 19.1005 89.0006Z" fill="#333333"/>
<path d="M27.3569 89.0007C27.2303 89.0003 27.1059 88.9644 26.9957 88.8965L18.7392 83.8318C18.6542 83.7802 18.5793 83.7107 18.5191 83.6273C18.4589 83.544 18.4145 83.4486 18.3884 83.3465C18.3624 83.2444 18.3552 83.1376 18.3674 83.0325C18.3795 82.9274 18.4107 82.8259 18.4591 82.734C18.5551 82.5493 18.7146 82.4136 18.9025 82.3565C19.0904 82.2994 19.2915 82.3256 19.4617 82.4294L27.7255 87.5021C27.8675 87.5896 27.9788 87.7259 28.0419 87.8895C28.105 88.0532 28.1164 88.2349 28.0742 88.4064C28.0321 88.5778 27.9387 88.7291 27.8089 88.8367C27.6791 88.9443 27.5201 89.002 27.3569 89.0007Z" fill="#333333"/>
<path d="M38.8346 91.6369C38.6391 91.6369 38.4516 91.5525 38.3133 91.4022C38.1751 91.2519 38.0974 91.0481 38.0974 90.8355V80.5058C38.0974 80.2933 38.1751 80.0895 38.3133 79.9392C38.4516 79.7889 38.6391 79.7045 38.8346 79.7045C39.0301 79.7045 39.2176 79.7889 39.3559 79.9392C39.4941 80.0895 39.5718 80.2933 39.5718 80.5058V90.8355C39.5718 91.0481 39.4941 91.2519 39.3559 91.4022C39.2176 91.5525 39.0301 91.6369 38.8346 91.6369Z" fill="#333333"/>
<path d="M34.7064 89.0006C34.5432 89.0018 34.3842 88.9441 34.2544 88.8365C34.1246 88.729 34.0313 88.5776 33.9891 88.4062C33.947 88.2348 33.9583 88.053 34.0214 87.8893C34.0846 87.7257 34.1958 87.5895 34.3379 87.502L42.6017 82.4293C42.7727 82.323 42.9756 82.295 43.1657 82.3513C43.3558 82.4077 43.5175 82.5438 43.6153 82.7298C43.713 82.9158 43.7388 83.1363 43.687 83.343C43.6352 83.5496 43.5099 83.7254 43.3388 83.8317L35.0824 88.8964C34.9679 88.967 34.8381 89.0029 34.7064 89.0006Z" fill="#333333"/>
<path d="M42.9629 89.0006C42.8363 89.0001 42.7119 88.9642 42.6017 88.8964L34.3379 83.8317C34.1668 83.7254 34.0416 83.5496 33.9898 83.343C33.9379 83.1363 33.9637 82.9158 34.0615 82.7298C34.1592 82.5438 34.3209 82.4077 34.511 82.3513C34.7011 82.295 34.904 82.323 35.0751 82.4293L43.3315 87.502C43.473 87.5891 43.584 87.7247 43.6472 87.8875C43.7104 88.0503 43.7224 88.2313 43.6812 88.4023C43.64 88.5733 43.5479 88.7247 43.4193 88.8329C43.2908 88.9411 43.1329 89 42.9703 89.0006H42.9629Z" fill="#333333"/>
<path d="M54.4411 91.6369C54.2456 91.6369 54.0581 91.5525 53.9199 91.4022C53.7816 91.2519 53.704 91.0481 53.704 90.8355V80.5058C53.704 80.2933 53.7816 80.0895 53.9199 79.9392C54.0581 79.7889 54.2456 79.7045 54.4411 79.7045C54.6367 79.7045 54.8242 79.7889 54.9624 79.9392C55.1007 80.0895 55.1783 80.2933 55.1783 80.5058V90.8355C55.1783 91.0481 55.1007 91.2519 54.9624 91.4022C54.8242 91.5525 54.6367 91.6369 54.4411 91.6369Z" fill="#333333"/>
<path d="M50.3123 89.0006C50.1805 89.0017 50.0507 88.9644 49.9366 88.8926C49.8225 88.8207 49.7282 88.7168 49.6636 88.5918C49.5681 88.4069 49.544 88.1883 49.5965 87.984C49.649 87.7797 49.7739 87.6063 49.9437 87.502L58.2076 82.4293C58.3786 82.323 58.5815 82.295 58.7716 82.3513C58.9617 82.4077 59.1234 82.5438 59.2212 82.7298C59.3189 82.9158 59.3447 83.1363 59.2929 83.343C59.241 83.5496 59.1158 83.7254 58.9447 83.8317L50.6883 88.8964C50.5738 88.967 50.444 89.0029 50.3123 89.0006Z" fill="#333333"/>
<path d="M58.5692 89.0005C58.4425 89.0001 58.3181 88.9642 58.208 88.8964L49.9441 83.8317C49.8594 83.7791 49.7851 83.7088 49.7254 83.625C49.6656 83.5411 49.6217 83.4453 49.596 83.343C49.5703 83.2407 49.5635 83.1338 49.5758 83.0286C49.5881 82.9234 49.6193 82.8219 49.6677 82.7298C49.7161 82.6377 49.7807 82.5569 49.8579 82.492C49.935 82.427 50.0231 82.3792 50.1173 82.3513C50.2114 82.3234 50.3096 82.3159 50.4064 82.3293C50.5032 82.3427 50.5966 82.3767 50.6813 82.4293L58.9378 87.502C59.0792 87.5891 59.1902 87.7247 59.2535 87.8875C59.3167 88.0503 59.3286 88.2313 59.2874 88.4023C59.2462 88.5733 59.1541 88.7247 59.0256 88.8329C58.897 88.9411 58.7391 89 58.5765 89.0005H58.5692Z" fill="#333333"/>
<path d="M70.0471 91.6369C69.8516 91.6369 69.6641 91.5525 69.5259 91.4022C69.3876 91.2519 69.3099 91.0481 69.3099 90.8355V80.5058C69.3099 80.2933 69.3876 80.0895 69.5259 79.9392C69.6641 79.7889 69.8516 79.7045 70.0471 79.7045C70.2426 79.7045 70.4301 79.7889 70.5684 79.9392C70.7066 80.0895 70.7843 80.2933 70.7843 80.5058V90.8355C70.7843 91.0481 70.7066 91.2519 70.5684 91.4022C70.4301 91.5525 70.2426 91.6369 70.0471 91.6369Z" fill="#333333"/>
<path d="M65.9189 89.0007C65.787 89.0019 65.6572 88.9646 65.5431 88.8927C65.429 88.8208 65.3348 88.717 65.2701 88.592C65.1746 88.407 65.1505 88.1884 65.203 87.9841C65.2555 87.7798 65.3804 87.6065 65.5503 87.5021L73.8141 82.4294C73.9842 82.3256 74.1853 82.2994 74.3732 82.3565C74.5612 82.4136 74.7206 82.5493 74.8166 82.734C74.8651 82.8259 74.8963 82.9274 74.9084 83.0325C74.9205 83.1376 74.9134 83.2444 74.8873 83.3465C74.8613 83.4486 74.8168 83.544 74.7566 83.6273C74.6964 83.7107 74.6216 83.7802 74.5365 83.8318L66.2801 88.8965C66.1699 88.9644 66.0455 89.0003 65.9189 89.0007Z" fill="#333333"/>
<path d="M74.1752 89.0006C74.0485 89.0001 73.9241 88.9642 73.8139 88.8964L65.5501 83.8317C65.3791 83.7254 65.2538 83.5496 65.202 83.343C65.1501 83.1363 65.1759 82.9158 65.2737 82.7298C65.3714 82.5438 65.5332 82.4077 65.7233 82.3513C65.9133 82.295 66.1162 82.323 66.2873 82.4293L74.5438 87.502C74.7136 87.6063 74.8385 87.7797 74.891 87.984C74.9435 88.1883 74.9194 88.4069 74.8239 88.5918C74.7593 88.7168 74.665 88.8207 74.5509 88.8926C74.4368 88.9644 74.307 89.0017 74.1752 89.0006Z" fill="#333333"/>
<path d="M59.4905 135.136C58.7513 135.136 58.0287 134.897 57.4141 134.451C56.7995 134.005 56.3204 133.37 56.0375 132.628C55.7546 131.885 55.6806 131.068 55.8248 130.28C55.9691 129.492 56.325 128.768 56.8477 128.2C57.3704 127.632 58.0364 127.245 58.7614 127.088C59.4864 126.931 60.2379 127.012 60.9208 127.319C61.6038 127.627 62.1875 128.147 62.5982 128.815C63.0089 129.484 63.2281 130.269 63.2281 131.073C63.2261 132.15 62.8317 133.182 62.1312 133.943C61.4307 134.705 60.4812 135.134 59.4905 135.136ZM59.4905 128.621C59.0426 128.621 58.6048 128.765 58.2324 129.036C57.8601 129.306 57.57 129.691 57.399 130.141C57.2279 130.591 57.1835 131.086 57.2714 131.564C57.3594 132.041 57.5756 132.479 57.8929 132.823C58.2101 133.167 58.6141 133.401 59.0536 133.495C59.4931 133.589 59.9483 133.539 60.3617 133.351C60.7751 133.164 61.1281 132.847 61.3759 132.442C61.6237 132.036 61.7552 131.56 61.7537 131.073C61.7517 130.422 61.5124 129.798 61.0882 129.338C60.664 128.879 60.0895 128.621 59.4905 128.621Z" fill="#333333"/>
<path d="M67.4742 7.61325H55.9963C55.8008 7.61325 55.6133 7.52882 55.4751 7.37853C55.3368 7.22824 55.2592 7.02441 55.2592 6.81187C55.2592 6.59933 55.3368 6.3955 55.4751 6.24521C55.6133 6.09493 55.8008 6.0105 55.9963 6.0105H67.4742C67.6698 6.0105 67.8573 6.09493 67.9955 6.24521C68.1338 6.3955 68.2114 6.59933 68.2114 6.81187C68.2114 7.02441 68.1338 7.22824 67.9955 7.37853C67.8573 7.52882 67.6698 7.61325 67.4742 7.61325Z" fill="#333333"/>
<path d="M53.2983 7.61325H51.5069C51.3114 7.61325 51.1239 7.52882 50.9856 7.37853C50.8474 7.22824 50.7697 7.02441 50.7697 6.81187C50.7697 6.59933 50.8474 6.3955 50.9856 6.24521C51.1239 6.09493 51.3114 6.0105 51.5069 6.0105H53.2983C53.4938 6.0105 53.6813 6.09493 53.8195 6.24521C53.9578 6.3955 54.0354 6.59933 54.0354 6.81187C54.0354 7.02441 53.9578 7.22824 53.8195 7.37853C53.6813 7.52882 53.4938 7.61325 53.2983 7.61325Z" fill="#333333"/>
<path d="M30.8732 45.2054C30.7044 45.2062 30.5405 45.144 30.4088 45.0291L26.2069 41.3508C26.1312 41.2847 26.0682 41.2029 26.0216 41.1103C25.9751 41.0176 25.9458 40.9158 25.9355 40.8108C25.9252 40.7058 25.9341 40.5997 25.9617 40.4984C25.9893 40.3972 26.0351 40.3028 26.0963 40.2209C26.219 40.057 26.3963 39.9524 26.5896 39.9299C26.7829 39.9073 26.9765 39.9687 27.1284 40.1007L31.3303 43.779C31.4066 43.8445 31.4702 43.9258 31.5174 44.0182C31.5647 44.1106 31.5946 44.2122 31.6056 44.3173C31.6165 44.4223 31.6083 44.5286 31.5813 44.6302C31.5543 44.7317 31.5091 44.8264 31.4482 44.9089C31.3789 45.0019 31.2912 45.0768 31.1917 45.1281C31.0922 45.1794 30.9834 45.2058 30.8732 45.2054Z" fill="white"/>
<path d="M28.7647 50.1982C28.7109 50.206 28.6564 50.206 28.6025 50.1982L23.0663 48.8759C22.9695 48.8533 22.8777 48.8102 22.7963 48.749C22.7148 48.6878 22.6452 48.6098 22.5915 48.5194C22.5377 48.429 22.5009 48.3279 22.4831 48.2221C22.4653 48.1162 22.4668 48.0075 22.4876 47.9023C22.5084 47.797 22.5481 47.6973 22.6044 47.6087C22.6607 47.5202 22.7324 47.4445 22.8156 47.3861C22.8988 47.3277 22.9917 47.2876 23.0891 47.2683C23.1865 47.2489 23.2865 47.2506 23.3833 47.2732L28.9195 48.5955C29.1151 48.6178 29.2944 48.7236 29.4181 48.8897C29.5419 49.0557 29.5998 49.2684 29.5793 49.481C29.5588 49.6935 29.4614 49.8885 29.3087 50.023C29.1559 50.1575 28.9602 50.2205 28.7647 50.1982Z" fill="white"/>
<path d="M23.9807 58.1157C23.7852 58.1476 23.586 58.0937 23.4271 57.966C23.2681 57.8383 23.1623 57.6471 23.133 57.4346C23.1036 57.222 23.1532 57.0055 23.2707 56.8327C23.3882 56.6599 23.5641 56.5448 23.7596 56.513L28.5512 54.9102C28.738 54.8476 28.9399 54.8682 29.1127 54.9674C29.2855 55.0665 29.415 55.2362 29.4727 55.4391C29.5303 55.6421 29.5114 55.8616 29.4202 56.0495C29.3289 56.2373 29.1728 56.3781 28.9862 56.4408L24.2019 58.0436C24.1321 58.0801 24.0575 58.1045 23.9807 58.1157Z" fill="white"/>
</svg>
