<svg width="350" height="259" viewBox="0 0 350 259" fill="none" xmlns="http://www.w3.org/2000/svg">
<path d="M314.93 240.551H291.746V240.727H314.93V240.551Z" fill="white"/>
<path d="M231.854 242.456H225.771V242.631H231.854V242.456Z" fill="white"/>
<path d="M291.046 234.052H277.613V234.228H291.046V234.052Z" fill="white"/>
<path d="M66.955 235.229H36.722V235.404H66.955V235.229Z" fill="white"/>
<path d="M77.623 235.229H73.192V235.404H77.623V235.229Z" fill="white"/>
<path d="M157.605 238.184H92.0291V238.359H157.605V238.184Z" fill="white"/>
<path d="M166.88 198.049H31.71C30.6499 198.049 29.6333 197.628 28.8837 196.878C28.1341 196.128 27.713 195.111 27.713 194.05V3.96378C27.7222 2.90932 28.1474 1.90118 28.896 1.15882C29.6446 0.416451 30.656 -4.04264e-05 31.71 2.94311e-09H166.88C167.405 2.94311e-09 167.925 0.103431 168.41 0.30439C168.895 0.505348 169.335 0.799899 169.706 1.17122C170.077 1.54254 170.372 1.98337 170.573 2.46853C170.774 2.95368 170.877 3.47367 170.877 3.9988V194.05C170.877 194.575 170.774 195.095 170.573 195.581C170.372 196.066 170.077 196.507 169.706 196.878C169.335 197.249 168.895 197.544 168.41 197.745C167.925 197.946 167.405 198.049 166.88 198.049ZM31.71 0.140064C30.6969 0.141915 29.7259 0.545364 29.0095 1.26205C28.2931 1.97874 27.8899 2.95024 27.888 3.96378V194.05C27.8899 195.064 28.2931 196.035 29.0095 196.752C29.7259 197.469 30.6969 197.872 31.71 197.874H166.88C167.893 197.872 168.864 197.469 169.581 196.752C170.297 196.035 170.7 195.064 170.702 194.05V3.96378C170.7 2.95024 170.297 1.97874 169.581 1.26205C168.864 0.545364 167.893 0.141915 166.88 0.140064H31.71Z" fill="white"/>
<path d="M318.29 198.049H183.12C182.06 198.049 181.043 197.628 180.294 196.878C179.544 196.128 179.123 195.111 179.123 194.05V3.96378C179.132 2.90932 179.557 1.90118 180.306 1.15882C181.055 0.416451 182.066 -4.04264e-05 183.12 2.94311e-09H318.29C319.35 2.94312e-09 320.367 0.421301 321.116 1.17122C321.866 1.92114 322.287 2.93825 322.287 3.9988V194.05C322.287 195.111 321.866 196.128 321.116 196.878C320.367 197.628 319.35 198.049 318.29 198.049ZM183.12 0.140064C182.107 0.141915 181.136 0.545364 180.42 1.26205C179.703 1.97874 179.3 2.95024 179.298 3.96378V194.05C179.3 195.064 179.703 196.035 180.42 196.752C181.136 197.469 182.107 197.872 183.12 197.874H318.29C319.303 197.872 320.274 197.469 320.991 196.752C321.707 196.035 322.11 195.064 322.112 194.05V3.96378C322.11 2.95024 321.707 1.97874 320.991 1.26205C320.274 0.545364 319.303 0.141915 318.29 0.140064H183.12Z" fill="white"/>
<path d="M350 229.283H0V229.459H350V229.283Z" fill="white"/>
<path d="M283.087 25.4424H264.264C258.295 25.4424 253.456 30.2835 253.456 36.2553V55.0868C253.456 61.0586 258.295 65.8997 264.264 65.8997H283.087C289.056 65.8997 293.895 61.0586 293.895 55.0868V36.2553C293.895 30.2835 289.056 25.4424 283.087 25.4424Z" fill="white"/>
<path d="M278.705 39.953C278.705 43.3985 276.955 46.1858 273.511 46.1858C270.067 46.1858 268.317 43.3845 268.317 39.953C268.317 36.5214 270.067 33.7132 273.511 33.7132C276.955 33.7132 278.705 36.5074 278.705 39.953Z" fill="white"/>
<path d="M273.511 57.6219H283.122V51.9073C283.122 48.7489 278.817 46.1858 273.511 46.1858C268.205 46.1858 263.9 48.7489 263.9 51.9073V57.6219H273.511Z" fill="white"/>
<path d="M106.043 39.0076H92.8971C88.7295 39.0076 85.3511 42.3876 85.3511 46.557V59.7089C85.3511 63.8783 88.7295 67.2583 92.8971 67.2583H106.043C110.211 67.2583 113.589 63.8783 113.589 59.7089V46.557C113.589 42.3876 110.211 39.0076 106.043 39.0076Z" fill="#ECECEC"/>
<path d="M98.896 54.6596C99.3201 54.0703 99.811 53.5321 100.359 53.0559C100.733 52.7251 101.079 52.3644 101.395 51.9774C101.611 51.6911 101.727 51.3416 101.724 50.9829C101.732 50.738 101.678 50.4951 101.568 50.2761C101.458 50.0572 101.295 49.8693 101.094 49.7294C100.599 49.4044 100.013 49.245 99.421 49.2742C98.8007 49.2595 98.1868 49.4016 97.636 49.6873C97.114 49.9687 96.6637 50.3665 96.32 50.8499L93.737 49.3372C94.3381 48.4293 95.1755 47.7029 96.159 47.2362C97.2936 46.7097 98.5347 46.4532 99.785 46.4869C101.175 46.4213 102.551 46.7857 103.726 47.5304C104.197 47.848 104.58 48.2798 104.84 48.7856C105.099 49.2913 105.227 49.8545 105.21 50.4227C105.222 50.9512 105.121 51.4762 104.916 51.9634C104.746 52.3729 104.51 52.7516 104.216 53.0839C103.936 53.392 103.579 53.7422 103.138 54.1413C102.716 54.5004 102.329 54.8991 101.983 55.3319C101.734 55.6674 101.606 56.077 101.619 56.4944H98.392C98.3661 55.8453 98.5422 55.2042 98.896 54.6596ZM98.553 61.2916C98.3607 61.1137 98.2087 60.8966 98.1073 60.655C98.0059 60.4134 97.9574 60.1529 97.965 59.8909C97.9594 59.6372 98.0084 59.3851 98.1086 59.1519C98.2089 58.9187 98.358 58.7098 98.546 58.5393C98.9561 58.1868 99.4788 57.993 100.019 57.993C100.56 57.993 101.083 58.1868 101.493 58.5393C101.68 58.7105 101.828 58.9197 101.927 59.1528C102.026 59.386 102.073 59.6377 102.067 59.8909C102.075 60.1529 102.026 60.4134 101.925 60.655C101.823 60.8966 101.671 61.1137 101.479 61.2916C101.079 61.6567 100.557 61.8592 100.016 61.8592C99.4746 61.8592 98.9528 61.6567 98.553 61.2916Z" fill="white"/>
<path d="M281.148 135.714H291.319C292.869 135.714 294.356 136.33 295.452 137.427C296.548 138.523 297.164 140.011 297.164 141.562V151.737C297.164 153.286 296.549 154.772 295.454 155.867C294.359 156.963 292.874 157.578 291.326 157.578H281.148C279.6 157.578 278.115 156.963 277.02 155.867C275.925 154.772 275.31 153.286 275.31 151.737V141.562C275.31 140.013 275.925 138.527 277.02 137.432C278.115 136.336 279.6 135.721 281.148 135.721V135.714Z" fill="white"/>
<path d="M285.782 147.83C286.111 147.374 286.492 146.958 286.916 146.59C287.207 146.333 287.477 146.052 287.721 145.75C287.888 145.531 287.977 145.262 287.973 144.986C287.98 144.797 287.939 144.609 287.854 144.439C287.768 144.27 287.64 144.126 287.483 144.02C287.101 143.765 286.647 143.639 286.188 143.663C285.719 143.649 285.254 143.753 284.836 143.966C284.417 144.179 284.059 144.494 283.794 144.881L281.792 143.712C282.255 143.003 282.904 142.436 283.668 142.073C284.545 141.667 285.503 141.468 286.468 141.492C287.545 141.439 288.612 141.723 289.52 142.304C289.886 142.551 290.184 142.886 290.384 143.28C290.585 143.673 290.683 144.111 290.668 144.552C290.676 144.96 290.6 145.365 290.444 145.743C290.312 146.061 290.128 146.354 289.898 146.611C289.636 146.9 289.358 147.173 289.065 147.43C288.741 147.71 288.441 148.017 288.169 148.348C287.981 148.611 287.883 148.928 287.889 149.251H285.397C285.375 148.749 285.51 148.252 285.782 147.83ZM285.516 152.963C285.37 152.828 285.255 152.663 285.177 152.479C285.1 152.295 285.063 152.098 285.068 151.898C285.064 151.702 285.101 151.507 285.177 151.326C285.253 151.145 285.366 150.982 285.509 150.848C285.827 150.576 286.232 150.427 286.65 150.427C287.068 150.427 287.473 150.576 287.791 150.848C287.935 150.982 288.05 151.144 288.127 151.325C288.204 151.506 288.242 151.702 288.239 151.898C288.243 152.098 288.205 152.296 288.127 152.48C288.048 152.663 287.931 152.828 287.784 152.963C287.634 153.109 287.457 153.223 287.262 153.299C287.067 153.375 286.859 153.411 286.65 153.404C286.441 153.409 286.234 153.373 286.039 153.297C285.844 153.221 285.667 153.108 285.516 152.963Z" fill="white"/>
<path d="M81.977 81.3767H68.831C64.6635 81.3767 61.285 84.7566 61.285 88.9261V102.078C61.285 106.247 64.6635 109.627 68.831 109.627H81.977C86.1446 109.627 89.523 106.247 89.523 102.078V88.9261C89.523 84.7566 86.1446 81.3767 81.977 81.3767Z" fill="white"/>
<path d="M75.404 87.5394C74.565 87.5394 73.7343 87.7048 72.9593 88.0262C72.1843 88.3476 71.4802 88.8187 70.8873 89.4125C70.2944 90.0064 69.8243 90.7113 69.5039 91.487C69.1835 92.2627 69.019 93.094 69.02 93.9333C69.02 97.4349 71.876 105.923 75.404 105.923C78.932 105.923 81.788 97.4559 81.788 93.9333C81.7889 93.094 81.6244 92.2627 81.304 91.487C80.9836 90.7113 80.5135 90.0064 79.9206 89.4125C79.3277 88.8187 78.6236 88.3476 77.8486 88.0262C77.0736 87.7048 76.2429 87.5394 75.404 87.5394ZM75.404 95.8591C75.0232 95.8591 74.6511 95.7462 74.3345 95.5346C74.0179 95.323 73.7712 95.0222 73.6255 94.6703C73.4798 94.3184 73.4417 93.9311 73.516 93.5576C73.5902 93.184 73.7736 92.8408 74.0428 92.5715C74.312 92.3021 74.655 92.1187 75.0284 92.0444C75.4018 91.9701 75.7889 92.0082 76.1406 92.154C76.4924 92.2998 76.793 92.5466 77.0045 92.8633C77.2161 93.18 77.329 93.5524 77.329 93.9333C77.3216 94.4392 77.1156 94.9219 76.7553 95.277C76.3951 95.6321 75.9097 95.8312 75.404 95.8311V95.8591Z" fill="white"/>
<path d="M78.2251 134.068C78.4304 132.772 78.4304 131.45 78.2251 130.154L76.2581 129.895C76.0994 129.171 75.8647 128.467 75.5581 127.794L77.0001 126.428C76.4005 125.26 75.6236 124.192 74.6971 123.263L72.9471 124.215C72.4061 123.724 71.8148 123.293 71.1831 122.926L71.5471 120.973C70.3845 120.374 69.1348 119.963 67.8441 119.754L66.9971 121.54C66.6401 121.505 66.2971 121.484 65.9051 121.484C65.5131 121.484 65.1631 121.484 64.8061 121.54L63.9591 119.754C62.6615 119.958 61.4046 120.367 60.2351 120.965L60.5991 122.919C59.9673 123.286 59.376 123.717 58.8351 124.208L57.0851 123.256C56.1585 124.185 55.3816 125.253 54.7821 126.421L56.2241 127.787C55.9174 128.46 55.6827 129.164 55.5241 129.888L53.5641 130.147C53.3494 131.443 53.3494 132.765 53.5641 134.061L55.5241 134.321C55.6827 135.044 55.9174 135.748 56.2241 136.421L54.7821 137.787C55.3803 138.956 56.1573 140.024 57.0851 140.952L58.8351 140C59.376 140.491 59.9673 140.923 60.5991 141.289L60.2351 143.243C61.4046 143.841 62.6615 144.25 63.9591 144.454L64.8061 142.668C65.1631 142.703 65.5061 142.724 65.9051 142.724C66.3041 142.724 66.6051 142.724 66.9971 142.668L67.8441 144.454C69.1416 144.25 70.3985 143.841 71.5681 143.243L71.2041 141.289C71.8358 140.923 72.4271 140.491 72.9681 140L74.7181 140.952C75.6446 140.023 76.4215 138.955 77.0211 137.787L75.6001 136.407C75.9059 135.733 76.1405 135.029 76.3001 134.307L78.2251 134.068ZM65.9051 136.47C65.0419 136.472 64.1978 136.217 63.4796 135.738C62.7613 135.259 62.2013 134.578 61.8704 133.78C61.5394 132.983 61.4525 132.105 61.6205 131.258C61.7886 130.411 62.2041 129.633 62.8144 129.022C63.4247 128.412 64.2024 127.996 65.049 127.828C65.8956 127.66 66.773 127.747 67.5702 128.078C68.3673 128.409 69.0484 128.969 69.527 129.688C70.0057 130.407 70.2604 131.251 70.2591 132.115C70.2572 133.269 69.7979 134.376 68.9818 135.193C68.1656 136.009 67.0592 136.469 65.9051 136.47Z" fill="white"/>
<path d="M84.539 148.159C84.5892 147.834 84.615 147.507 84.616 147.178C84.6155 146.85 84.5898 146.522 84.539 146.198L83.552 146.072C83.4771 145.713 83.3645 145.363 83.216 145.028L83.916 144.328C83.6164 143.741 83.2267 143.205 82.761 142.738L81.886 143.215C81.6141 142.971 81.3187 142.755 81.004 142.57L81.186 141.597C80.6016 141.296 79.973 141.09 79.324 140.988L78.904 141.884C78.722 141.884 78.54 141.884 78.358 141.884C78.176 141.884 77.987 141.884 77.805 141.884L77.385 140.988C76.7359 141.09 76.1074 141.296 75.523 141.597L75.705 142.57C75.3903 142.755 75.0948 142.971 74.823 143.215L73.948 142.738C73.4823 143.205 73.0925 143.741 72.793 144.328L73.493 145.028C73.3445 145.363 73.2318 145.713 73.157 146.072L72.177 146.198C72.1226 146.522 72.0969 146.85 72.1 147.178C72.0975 147.507 72.1233 147.835 72.177 148.159L73.157 148.285C73.2319 148.641 73.3445 148.989 73.493 149.321L72.793 150.022C73.0931 150.606 73.4829 151.14 73.948 151.604L74.823 151.128C75.0913 151.376 75.3872 151.592 75.705 151.772L75.523 152.746C76.1074 153.047 76.7359 153.252 77.385 153.355L77.805 152.459C78.1704 152.496 78.5386 152.496 78.904 152.459L79.324 153.355C79.973 153.252 80.6016 153.047 81.186 152.746L81.004 151.772C81.3218 151.592 81.6177 151.376 81.886 151.128L82.761 151.604C83.2261 151.14 83.6158 150.606 83.916 150.022L83.216 149.321C83.3645 148.989 83.4771 148.641 83.552 148.285L84.539 148.159ZM78.379 149.356C77.9484 149.356 77.5275 149.229 77.1695 148.989C76.8115 148.75 76.5325 148.41 76.3677 148.012C76.2029 147.614 76.1598 147.176 76.2438 146.753C76.3278 146.331 76.5352 145.943 76.8396 145.638C77.1441 145.334 77.532 145.126 77.9543 145.042C78.3766 144.958 78.8143 145.001 79.2121 145.166C79.6099 145.331 79.9499 145.61 80.1891 145.968C80.4283 146.326 80.556 146.748 80.556 147.178C80.5542 147.752 80.3271 148.302 79.9238 148.709C79.5204 149.116 78.9731 149.349 78.4 149.356H78.379Z" fill="#E2E2E2"/>
<path d="M300.818 134.026C301.082 133.831 301.332 133.619 301.567 133.389C301.798 133.156 302.011 132.906 302.204 132.64L301.602 131.855C301.801 131.55 301.965 131.224 302.092 130.882H303.086C303.29 130.258 303.394 129.605 303.394 128.949L302.435 128.669C302.421 128.304 302.364 127.942 302.267 127.59L303.086 127.03C302.888 126.404 302.587 125.815 302.197 125.286L301.266 125.615C301.152 125.474 301.031 125.338 300.902 125.209C300.769 125.076 300.636 124.957 300.496 124.838L300.825 123.907C300.293 123.523 299.705 123.223 299.082 123.017L298.522 123.837C298.167 123.746 297.803 123.69 297.437 123.669L297.157 122.716C296.501 122.714 295.848 122.818 295.225 123.024V124.012C294.884 124.144 294.558 124.31 294.252 124.509L293.461 123.907C292.925 124.299 292.453 124.771 292.061 125.307L292.663 126.092C292.466 126.401 292.299 126.73 292.166 127.072H291.179C290.976 127.696 290.872 128.349 290.871 129.005L291.823 129.285C291.844 129.649 291.9 130.01 291.991 130.364L291.172 130.931C291.377 131.554 291.677 132.142 292.061 132.675L292.992 132.339C293.111 132.479 293.23 132.619 293.363 132.752C293.496 132.885 293.629 133.004 293.769 133.116L293.44 134.047C293.968 134.438 294.557 134.738 295.183 134.937L295.743 134.117C296.095 134.215 296.456 134.271 296.821 134.285L297.101 135.245C297.759 135.244 298.414 135.14 299.04 134.937V133.942C299.38 133.813 299.706 133.649 300.013 133.452L300.818 134.026ZM295.617 130.525C295.313 130.22 295.106 129.832 295.022 129.41C294.938 128.987 294.981 128.549 295.146 128.151C295.311 127.754 295.59 127.413 295.948 127.174C296.306 126.935 296.726 126.807 297.157 126.807C297.587 126.807 298.008 126.935 298.366 127.174C298.724 127.413 299.003 127.754 299.168 128.151C299.333 128.549 299.376 128.987 299.292 129.41C299.208 129.832 299.001 130.22 298.697 130.525C298.495 130.728 298.255 130.888 297.99 130.998C297.725 131.107 297.442 131.163 297.156 131.163C296.869 131.162 296.586 131.105 296.322 130.994C296.058 130.883 295.818 130.721 295.617 130.518V130.525Z" fill="white"/>
<path d="M175 258.213C249.958 258.213 310.723 254.664 310.723 250.286C310.723 245.907 249.958 242.358 175 242.358C100.042 242.358 39.277 245.907 39.277 250.286C39.277 254.664 100.042 258.213 175 258.213Z" fill="#ECECEC"/>
<path d="M199.892 41.1506V30.2396L205.254 29.4833V40.3942L199.892 41.1506Z" fill="#333333"/>
<path d="M182.063 47.2292L178.045 40.8284L181.468 38.3773L185.479 44.7711L182.063 47.2292Z" fill="#333333"/>
<path d="M219.66 39.96L223.678 32.4386L227.094 33.9302L223.083 41.4586L219.66 39.96Z" fill="#333333"/>
<g opacity="0.5">
<path d="M199.892 41.1506V30.2396L205.254 29.4833V40.3942L199.892 41.1506Z" fill="white"/>
<path d="M182.063 47.2292L178.045 40.8284L181.468 38.3773L185.479 44.7711L182.063 47.2292Z" fill="white"/>
<path d="M219.66 39.96L223.678 32.4386L227.094 33.9302L223.083 41.4586L219.66 39.96Z" fill="white"/>
</g>
<path d="M206.017 31.241L199.129 32.2145C198.879 32.2607 198.622 32.2502 198.376 32.1838C198.131 32.1174 197.903 31.9968 197.71 31.8308C197.518 31.6649 197.365 31.4578 197.262 31.2248C197.16 30.9919 197.112 30.739 197.12 30.4847C197.136 29.9286 197.345 29.3956 197.712 28.9775C198.079 28.5594 198.58 28.2825 199.129 28.1947L206.017 27.2282C206.266 27.1822 206.523 27.1925 206.768 27.2585C207.013 27.3245 207.24 27.4445 207.433 27.6096C207.625 27.7748 207.779 27.981 207.881 28.2131C207.984 28.4452 208.033 28.6973 208.026 28.951C208.009 29.5066 207.799 30.039 207.432 30.4568C207.066 30.8746 206.565 31.1519 206.017 31.241Z" fill="#333333"/>
<path d="M182.581 38.2021L177.478 41.8718C177.372 41.9605 177.249 42.0265 177.116 42.0655C176.983 42.1046 176.844 42.116 176.707 42.0989C176.57 42.0818 176.437 42.0367 176.318 41.9663C176.199 41.8959 176.096 41.8017 176.015 41.6897C175.88 41.4328 175.846 41.1351 175.918 40.8543C175.991 40.5735 176.165 40.3296 176.407 40.17L181.517 36.5073C181.622 36.4178 181.744 36.3511 181.877 36.3115C182.009 36.2719 182.148 36.2603 182.285 36.2774C182.422 36.2945 182.554 36.34 182.672 36.4109C182.791 36.4819 182.893 36.5767 182.973 36.6894C183.107 36.9452 183.141 37.2418 183.069 37.5215C182.996 37.8011 182.822 38.0438 182.581 38.2021Z" fill="#333333"/>
<path d="M227.668 34.8126L222.558 32.5856C222.436 32.5237 222.328 32.4371 222.242 32.3314C222.155 32.2257 222.091 32.1031 222.054 31.9715C222.018 31.8398 222.009 31.7019 222.028 31.5665C222.047 31.4311 222.094 31.3012 222.166 31.185C222.294 30.9229 222.514 30.7172 222.784 30.6073C223.054 30.4975 223.355 30.4912 223.629 30.5897L228.732 32.8237C228.855 32.884 228.965 32.9697 229.053 33.0753C229.141 33.1808 229.205 33.3037 229.242 33.436C229.279 33.5683 229.288 33.707 229.267 33.8429C229.247 33.9787 229.198 34.1087 229.124 34.2244C228.996 34.4847 228.777 34.6887 228.509 34.7972C228.24 34.9058 227.941 34.9113 227.668 34.8126Z" fill="#333333"/>
<path opacity="0.7" d="M206.017 31.241L199.129 32.2145C198.879 32.2607 198.622 32.2502 198.376 32.1838C198.131 32.1174 197.903 31.9968 197.71 31.8308C197.518 31.6649 197.365 31.4578 197.262 31.2248C197.16 30.9919 197.112 30.739 197.12 30.4847C197.136 29.9286 197.345 29.3956 197.712 28.9775C198.079 28.5594 198.58 28.2825 199.129 28.1947L206.017 27.2282C206.266 27.1822 206.523 27.1925 206.768 27.2585C207.013 27.3245 207.24 27.4445 207.433 27.6096C207.625 27.7748 207.779 27.981 207.881 28.2131C207.984 28.4452 208.033 28.6973 208.026 28.951C208.009 29.5066 207.799 30.039 207.432 30.4568C207.066 30.8746 206.565 31.1519 206.017 31.241Z" fill="white"/>
<path opacity="0.7" d="M182.581 38.2021L177.478 41.8718C177.372 41.9605 177.249 42.0265 177.116 42.0655C176.983 42.1046 176.844 42.116 176.707 42.0989C176.57 42.0818 176.437 42.0367 176.318 41.9663C176.199 41.8959 176.096 41.8017 176.015 41.6897C175.88 41.4328 175.846 41.1351 175.918 40.8543C175.991 40.5735 176.165 40.3296 176.407 40.17L181.517 36.5073C181.622 36.4178 181.744 36.3511 181.877 36.3115C182.009 36.2719 182.148 36.2603 182.285 36.2774C182.422 36.2945 182.554 36.34 182.672 36.4109C182.791 36.4819 182.893 36.5767 182.973 36.6894C183.107 36.9452 183.141 37.2418 183.069 37.5215C182.996 37.8011 182.822 38.0438 182.581 38.2021Z" fill="white"/>
<path opacity="0.7" d="M227.668 34.8126L222.558 32.5856C222.436 32.5237 222.328 32.4371 222.242 32.3314C222.155 32.2257 222.091 32.1031 222.054 31.9715C222.018 31.8398 222.009 31.7019 222.028 31.5665C222.047 31.4311 222.094 31.3012 222.166 31.185C222.294 30.9229 222.514 30.7172 222.784 30.6073C223.054 30.4975 223.355 30.4912 223.629 30.5897L228.732 32.8237C228.855 32.884 228.965 32.9697 229.053 33.0753C229.141 33.1808 229.205 33.3037 229.242 33.436C229.279 33.5683 229.288 33.707 229.267 33.8429C229.247 33.9787 229.198 34.1087 229.124 34.2244C228.996 34.4847 228.777 34.6887 228.509 34.7972C228.24 34.9058 227.941 34.9113 227.668 34.8126Z" fill="white"/>
<path d="M202.573 109.459C183.932 112.078 168.819 99.0876 168.819 80.4382C168.819 61.7888 183.932 44.54 202.573 41.9208C221.214 39.3016 236.327 52.2925 236.327 70.9419L240.933 70.2976C240.933 49.0991 223.755 34.3364 202.573 37.3127C181.391 40.2891 164.213 59.8909 164.213 81.0824C164.213 102.274 181.384 117.044 202.573 114.067V109.459Z" fill="#0668E3"/>
<path d="M189.161 99.6104L186.642 104.33L187.63 104.858L190.149 100.138L189.161 99.6104Z" fill="#333333"/>
<path d="M217.502 46.5162L214.983 51.2359L215.971 51.7637L218.49 47.0439L217.502 46.5162Z" fill="#333333"/>
<path d="M176.062 63.4839L175.613 64.5117L179.976 66.4178L180.425 65.39L176.062 63.4839Z" fill="#333333"/>
<path d="M188.05 51.5011L187.098 52.0949L189.61 56.1249L190.562 55.531L188.05 51.5011Z" fill="#333333"/>
<path d="M179.885 91.3105L175.517 94.446L176.17 95.3564L180.538 92.2209L179.885 91.3105Z" fill="#333333"/>
<path d="M228.973 56.0434L224.605 59.1789L225.258 60.0893L229.626 56.9538L228.973 56.0434Z" fill="#333333"/>
<path d="M178.277 77.9749L171.56 78.9193L171.871 81.1385L178.588 80.1941L178.277 77.9749Z" fill="#333333"/>
<path d="M203.693 44.8202H201.453V51.5432H203.693V44.8202Z" fill="#333333"/>
<path d="M203.693 99.8369H201.453V106.56H203.693V99.8369Z" fill="#333333"/>
<path d="M193.9 68.4067C193.639 68.6692 193.493 69.0242 193.493 69.3942C193.493 69.7642 193.639 70.1192 193.9 70.3816L201.418 76.8385L203.385 74.5905L195.874 68.1266C195.727 68.0141 195.558 67.932 195.379 67.8851C195.199 67.8382 195.012 67.8275 194.828 67.8536C194.645 67.8797 194.468 67.942 194.309 68.0369C194.149 68.1319 194.01 68.2576 193.9 68.4067Z" fill="#0668E3"/>
<path opacity="0.4" d="M193.9 68.4067C193.639 68.6692 193.493 69.0242 193.493 69.3942C193.493 69.7642 193.639 70.1192 193.9 70.3816L201.418 76.8385L203.385 74.5905L195.874 68.1266C195.727 68.0141 195.558 67.932 195.379 67.8851C195.199 67.8382 195.012 67.8275 194.828 67.8536C194.645 67.8797 194.468 67.942 194.309 68.0369C194.149 68.1319 194.01 68.2576 193.9 68.4067Z" fill="white"/>
<path d="M244.216 69.2752L238.609 76.7896L233.009 70.8509L244.216 69.2752Z" fill="#0668E3"/>
<path d="M215.362 60.8854C215.215 60.7729 215.046 60.6908 214.867 60.6439C214.687 60.597 214.5 60.5863 214.316 60.6124C214.133 60.6385 213.956 60.7008 213.797 60.7957C213.637 60.8907 213.498 61.0164 213.388 61.1655L203.21 72.7768C202.665 72.708 202.111 72.7764 201.599 72.9757C201.087 73.175 200.632 73.499 200.277 73.9183C199.129 75.2349 199.129 77.1047 200.277 78.1202C201.425 79.1356 203.301 78.8205 204.477 77.5319C204.84 77.1278 205.094 76.6384 205.216 76.1094C205.339 75.5804 205.325 75.0289 205.177 74.5065L215.355 62.8883C215.489 62.7583 215.595 62.6029 215.668 62.4312C215.741 62.2595 215.779 62.0749 215.78 61.8883C215.78 61.7018 215.744 61.5169 215.672 61.3447C215.6 61.1725 215.495 61.0163 215.362 60.8854Z" fill="#0668E3"/>
<path d="M217.203 103.128L225.953 101.896L225.176 105.937L209.405 108.157L210.035 104.942L219.527 96.1674C220.42 95.3599 221.222 94.4582 221.921 93.4782C222.356 92.8619 222.599 92.1311 222.621 91.3772C222.639 91.0719 222.577 90.7671 222.439 90.494C222.301 90.2208 222.093 89.9891 221.837 89.8225C221.139 89.4534 220.332 89.3466 219.562 89.5214C218.701 89.6438 217.877 89.9521 217.147 90.4248C216.36 90.922 215.673 91.5635 215.124 92.3156L211.883 90.4178C212.789 89.0766 213.986 87.9565 215.383 87.1403C216.883 86.2422 218.55 85.6607 220.283 85.4315C221.555 85.2183 222.858 85.2779 224.105 85.6066C225.108 85.8667 226.002 86.4379 226.66 87.2384C227.275 88.027 227.596 89.0049 227.57 90.0046C227.557 91.3383 227.188 92.6442 226.499 93.7863C225.472 95.3815 224.22 96.8202 222.782 98.0582L217.203 103.128Z" fill="#333333"/>
<path d="M246.806 98.5203L243.39 99.0036L242.522 103.5L237.825 104.158L238.7 99.6549L227.5 101.238L228.123 97.9041L240.38 82.9593L245.651 82.224L234.22 96.3634L239.701 95.593L240.471 91.5802L244.965 90.9499L244.188 94.9557L247.611 94.4795L246.806 98.5203Z" fill="#333333"/>
<path d="M260.554 75.9002L264.901 75.2839L249.606 105.481L245.294 106.084L260.554 75.9002Z" fill="#333333"/>
<path d="M280.399 77.3358L279.776 80.5503L268.646 99.823L263.291 100.579L273.973 82.168L267.218 83.1205L266.518 86.622L262.234 87.2243L263.69 79.6959L280.399 77.3358Z" fill="#333333"/>
<path d="M211.799 128.858C211.135 128.784 210.493 128.58 209.909 128.256L210.931 126.155C211.449 126.458 212.019 126.662 212.611 126.757C213.244 126.859 213.889 126.859 214.522 126.757C215.108 126.698 215.672 126.501 216.167 126.183C216.344 126.078 216.492 125.929 216.597 125.752C216.703 125.575 216.762 125.374 216.769 125.167C216.776 125.014 216.733 124.862 216.646 124.735C216.559 124.609 216.432 124.515 216.286 124.467C215.789 124.3 215.275 124.187 214.753 124.131C214.172 124.046 213.597 123.926 213.031 123.774C212.589 123.645 212.189 123.404 211.869 123.073C211.522 122.671 211.349 122.147 211.386 121.617C211.383 120.897 211.595 120.192 211.995 119.593C212.44 118.945 213.039 118.418 213.738 118.059C214.552 117.632 215.437 117.355 216.349 117.24C217.044 117.135 217.75 117.119 218.449 117.191C219.032 117.239 219.601 117.393 220.129 117.646L219.184 119.705C218.76 119.475 218.297 119.325 217.819 119.264C217.292 119.194 216.757 119.194 216.23 119.264C215.625 119.327 215.046 119.538 214.543 119.88C214.36 119.988 214.208 120.14 214.099 120.323C213.99 120.505 213.929 120.711 213.92 120.923C213.914 121.032 213.936 121.14 213.982 121.237C214.028 121.335 214.099 121.42 214.186 121.484C214.382 121.633 214.609 121.736 214.851 121.785C215.117 121.841 215.495 121.904 215.985 121.974C216.562 122.038 217.133 122.146 217.693 122.296C218.127 122.427 218.52 122.669 218.834 122.996C219.002 123.187 219.13 123.409 219.21 123.649C219.291 123.89 219.322 124.144 219.303 124.397C219.31 125.123 219.095 125.834 218.687 126.435C218.233 127.08 217.63 127.606 216.93 127.969C216.104 128.423 215.203 128.724 214.27 128.858C213.451 128.977 212.618 128.977 211.799 128.858Z" fill="#333333"/>
<path d="M224.658 118.353L224.189 120.783L229.236 120.083L228.851 122.1L223.79 122.8L223.293 125.391L229.222 124.558L228.802 126.659L220.402 127.843L222.572 116.638L230.79 115.482L230.37 117.583L224.658 118.353Z" fill="#333333"/>
<path d="M240.835 120.069C240.264 120.89 239.473 121.533 238.553 121.925L240.443 125.013L237.79 125.392L236.082 122.59L233.94 122.891L233.331 126.022L230.804 126.379L232.974 115.174L237.405 114.551C238.468 114.315 239.58 114.474 240.534 114.999C240.91 115.253 241.211 115.602 241.408 116.01C241.605 116.418 241.69 116.872 241.654 117.324C241.672 118.302 241.386 119.261 240.835 120.069ZM238.42 119.677C238.651 119.45 238.832 119.179 238.953 118.878C239.073 118.578 239.13 118.256 239.12 117.933C239.141 117.721 239.103 117.508 239.01 117.316C238.918 117.125 238.774 116.963 238.595 116.848C238.128 116.619 237.598 116.555 237.09 116.666L235.102 116.946L234.339 120.832L236.481 120.531C237.202 120.46 237.881 120.161 238.42 119.677Z" fill="#333333"/>
<path d="M254.835 112.121L247.961 123.956L245.49 124.299L242.956 113.794L245.553 113.43L247.303 120.93L252.203 112.485L254.835 112.121Z" fill="#333333"/>
<path d="M255.731 111.994L258.265 111.637L256.095 122.842L253.561 123.199L255.731 111.994Z" fill="#333333"/>
<path d="M261.52 121.652C260.757 121.406 260.097 120.913 259.644 120.251C259.194 119.541 258.967 118.711 258.993 117.87C258.987 116.669 259.278 115.486 259.84 114.425C260.407 113.352 261.226 112.434 262.227 111.749C263.271 111.029 264.47 110.566 265.727 110.398C266.586 110.255 267.465 110.303 268.303 110.538C268.991 110.721 269.591 111.143 269.997 111.728L268.177 113.472C267.874 113.086 267.465 112.795 267.001 112.635C266.537 112.475 266.036 112.452 265.559 112.569C264.798 112.671 264.075 112.965 263.459 113.423C262.864 113.879 262.384 114.47 262.059 115.146C261.723 115.835 261.55 116.592 261.555 117.359C261.529 117.714 261.588 118.07 261.727 118.397C261.865 118.725 262.08 119.015 262.353 119.243C262.678 119.464 263.046 119.615 263.433 119.688C263.819 119.76 264.217 119.751 264.6 119.663C265.74 119.505 266.775 118.91 267.484 118.003L268.975 119.313C268.419 120.021 267.725 120.61 266.936 121.045C266.147 121.479 265.279 121.75 264.383 121.841C263.427 122.007 262.446 121.943 261.52 121.652Z" fill="#333333"/>
<path d="M274.302 111.406L273.833 113.829L278.88 113.129L278.495 115.139L273.434 115.839L272.937 118.423L278.866 117.59L278.446 119.691L270.046 120.874L272.223 109.669L280.42 108.549L280 110.65L274.302 111.406Z" fill="#333333"/>
<path d="M137.529 62.6573C130.046 62.6573 123.984 67.0762 123.984 72.5247C123.984 76.4815 127.197 79.892 131.824 81.4607C131.328 83.7331 130.475 85.9125 129.297 87.9176C130.976 87.6677 132.576 87.0391 133.977 86.0794C135.378 85.1198 136.542 83.8541 137.382 82.3781H137.529C145.012 82.3781 151.074 77.9662 151.074 72.5177C151.074 67.0692 145.012 62.6573 137.529 62.6573Z" fill="#0668E3"/>
<path opacity="0.7" d="M137.529 62.6573C130.046 62.6573 123.984 67.0762 123.984 72.5247C123.984 76.4815 127.197 79.892 131.824 81.4607C131.328 83.7331 130.475 85.9125 129.297 87.9176C130.976 87.6677 132.576 87.0391 133.977 86.0794C135.378 85.1198 136.542 83.8541 137.382 82.3781H137.529C145.012 82.3781 151.074 77.9662 151.074 72.5177C151.074 67.0692 145.012 62.6573 137.529 62.6573Z" fill="white"/>
<path d="M131.558 74.4225C132.32 74.4225 132.937 73.8048 132.937 73.0429C132.937 72.2809 132.32 71.6632 131.558 71.6632C130.796 71.6632 130.179 72.2809 130.179 73.0429C130.179 73.8048 130.796 74.4225 131.558 74.4225Z" fill="#333333"/>
<path d="M138.817 73.0429C138.817 73.3199 138.735 73.5907 138.581 73.821C138.427 74.0514 138.208 74.2309 137.953 74.3369C137.697 74.4429 137.415 74.4706 137.144 74.4166C136.872 74.3625 136.623 74.2292 136.427 74.0333C136.231 73.8374 136.098 73.5878 136.044 73.3161C135.99 73.0444 136.017 72.7628 136.123 72.5069C136.229 72.2509 136.409 72.0322 136.639 71.8783C136.869 71.7244 137.14 71.6422 137.417 71.6422C137.788 71.6422 138.144 71.7898 138.407 72.0525C138.669 72.3151 138.817 72.6714 138.817 73.0429Z" fill="#333333"/>
<path d="M143.318 74.4225C144.08 74.4225 144.697 73.8048 144.697 73.0429C144.697 72.2809 144.08 71.6632 143.318 71.6632C142.556 71.6632 141.939 72.2809 141.939 73.0429C141.939 73.8048 142.556 74.4225 143.318 74.4225Z" fill="#333333"/>
<path d="M260.4 213.631C260.4 213.631 260.491 204.282 257.089 205.514C253.687 206.747 260.4 213.631 260.4 213.631Z" fill="#0668E3"/>
<path d="M264.054 204.975C264.054 204.975 268.562 197.496 264.488 196.424C260.414 195.353 264.054 204.975 264.054 204.975Z" fill="#0668E3"/>
<path d="M281.869 199.695C281.869 199.695 291.228 199.212 289.114 195.703C287 192.195 281.869 199.695 281.869 199.695Z" fill="#0668E3"/>
<path d="M267.064 202.181C267.064 202.181 276.864 199.968 275.03 205.472C273.196 210.977 267.064 202.181 267.064 202.181Z" fill="#0668E3"/>
<path d="M259.945 222.084C259.945 222.084 256.2 213.596 254.1 216.614C252 219.633 259.945 222.084 259.945 222.084Z" fill="#0668E3"/>
<path d="M270.627 200.416C270.627 200.416 280.609 197.797 277.501 194.113C274.393 190.43 270.627 200.416 270.627 200.416Z" fill="#0668E3"/>
<path d="M278.173 199.387C278.173 199.387 286.069 203.266 282.429 205.802C278.789 208.337 278.173 199.387 278.173 199.387Z" fill="#0668E3"/>
<path d="M261.387 209.87C261.387 209.87 266.854 203.287 268.541 208.071C270.228 212.854 261.387 209.87 261.387 209.87Z" fill="#0668E3"/>
<g opacity="0.4">
<path d="M259.945 222.084C259.945 222.084 256.2 213.596 254.1 216.614C252 219.633 259.945 222.084 259.945 222.084Z" fill="white"/>
<path d="M270.627 200.416C270.627 200.416 280.609 197.797 277.501 194.113C274.393 190.43 270.627 200.416 270.627 200.416Z" fill="white"/>
<path d="M278.173 199.387C278.173 199.387 286.069 203.266 282.429 205.802C278.789 208.337 278.173 199.387 278.173 199.387Z" fill="white"/>
<path d="M261.387 209.87C261.387 209.87 266.854 203.287 268.541 208.071C270.228 212.854 261.387 209.87 261.387 209.87Z" fill="white"/>
</g>
<path d="M259.889 218.414C259.889 218.414 263.809 210.01 266.966 214.247C270.123 218.484 259.889 218.414 259.889 218.414Z" fill="#0668E3"/>
<path d="M259.952 227.252C258.764 221.776 258.935 216.092 260.449 210.697C263.655 200.192 273.49 197.72 283.43 199.31C284.221 199.436 283.871 200.626 283.087 200.5C277.809 199.66 271.887 199.576 267.288 202.769C263.998 205.073 262.136 208.736 261.24 212.574C260.189 217.306 260.163 222.208 261.163 226.951C261.324 227.735 260.12 228.044 259.952 227.259V227.252Z" fill="#0668E3"/>
<g opacity="0.3">
<path d="M259.952 227.252C258.764 221.776 258.935 216.092 260.449 210.697C263.655 200.192 273.49 197.72 283.43 199.31C284.221 199.436 283.871 200.626 283.087 200.5C277.809 199.66 271.887 199.576 267.288 202.769C263.998 205.073 262.136 208.736 261.24 212.574C260.189 217.306 260.163 222.208 261.163 226.951C261.324 227.735 260.12 228.044 259.952 227.259V227.252Z" fill="#333333"/>
</g>
<path d="M252.161 210.795C252.161 210.795 247.261 199.366 244.083 202.349C240.905 205.332 252.161 210.795 252.161 210.795Z" fill="#0668E3"/>
<path d="M251.741 198.637C251.741 198.637 252.903 187.565 247.695 188.042C242.487 188.518 251.741 198.637 251.741 198.637Z" fill="#0668E3"/>
<path d="M269.234 184.435C269.234 184.435 279.629 179.764 275.359 176.416C271.089 173.069 269.234 184.435 269.234 184.435Z" fill="#0668E3"/>
<path d="M253.687 193.924C253.687 193.924 263.69 186.921 264.509 194.457C265.328 201.992 253.687 193.924 253.687 193.924Z" fill="#0668E3"/>
<path d="M256.151 221.258C256.151 221.258 247.338 212.588 246.547 217.168C245.756 221.748 256.151 221.258 256.151 221.258Z" fill="#0668E3"/>
<path d="M256.802 190.22C256.802 190.22 266.784 182.67 261.282 179.54C255.78 176.409 256.802 190.22 256.802 190.22Z" fill="#0668E3"/>
<path d="M264.859 185.675C264.859 185.675 275.912 186.956 273.105 191.627C270.298 196.298 264.859 185.675 264.859 185.675Z" fill="#0668E3"/>
<path d="M251.3 205.76C251.3 205.76 254.03 195.36 258.496 200.451C262.962 205.543 251.3 205.76 251.3 205.76Z" fill="#0668E3"/>
<g opacity="0.4">
<path d="M256.151 221.258C256.151 221.258 247.338 212.588 246.547 217.168C245.756 221.748 256.151 221.258 256.151 221.258Z" fill="white"/>
<path d="M256.802 190.22C256.802 190.22 266.784 182.67 261.282 179.54C255.78 176.409 256.802 190.22 256.802 190.22Z" fill="white"/>
<path d="M264.859 185.675C264.859 185.675 275.912 186.956 273.105 191.627C270.298 196.298 264.859 185.675 264.859 185.675Z" fill="white"/>
<path d="M251.3 205.76C251.3 205.76 254.03 195.36 258.496 200.451C262.962 205.543 251.3 205.76 251.3 205.76Z" fill="white"/>
</g>
<path d="M254.142 216.818C254.142 216.818 254.142 204.863 259.98 208.652C265.818 212.441 254.142 216.818 254.142 216.818Z" fill="#0668E3"/>
<path d="M258.895 227.546C254.793 221.545 251.629 214.24 250.677 207.181C248.759 193.007 258.629 185.689 270.802 183.279C271.768 183.09 271.999 184.68 271.047 184.89C264.586 186.165 257.747 188.665 254.247 194.548C251.72 198.784 251.538 204.058 252.553 209.114C253.903 215.386 256.467 221.334 260.099 226.622C260.158 226.702 260.2 226.793 260.224 226.889C260.248 226.986 260.252 227.086 260.237 227.184C260.222 227.282 260.188 227.377 260.137 227.462C260.086 227.547 260.018 227.621 259.938 227.679C259.858 227.738 259.767 227.781 259.671 227.805C259.574 227.828 259.474 227.833 259.376 227.818C259.278 227.803 259.184 227.769 259.099 227.717C259.014 227.666 258.94 227.598 258.881 227.518L258.895 227.546Z" fill="#0668E3"/>
<g opacity="0.3">
<path d="M258.895 227.546C254.793 221.545 251.629 214.24 250.677 207.181C248.759 193.007 258.629 185.689 270.802 183.279C271.768 183.09 271.999 184.68 271.047 184.89C264.586 186.165 257.747 188.665 254.247 194.548C251.72 198.784 251.538 204.058 252.553 209.114C253.903 215.386 256.467 221.334 260.099 226.622C260.158 226.702 260.2 226.793 260.224 226.889C260.248 226.986 260.252 227.086 260.237 227.184C260.222 227.282 260.188 227.377 260.137 227.462C260.086 227.547 260.018 227.621 259.938 227.679C259.858 227.738 259.767 227.781 259.671 227.805C259.574 227.828 259.474 227.833 259.376 227.818C259.278 227.803 259.184 227.769 259.099 227.717C259.014 227.666 258.94 227.598 258.881 227.518L258.895 227.546Z" fill="#333333"/>
</g>
<path d="M250.999 213.799C250.999 213.799 253.323 206.047 255.815 207.938C258.307 209.828 250.999 213.799 250.999 213.799Z" fill="#0668E3"/>
<path d="M250.187 205.704C250.187 205.704 248.388 198.357 252.028 198.525C255.668 198.693 250.187 205.704 250.187 205.704Z" fill="#0668E3"/>
<path d="M236.824 196.789C236.824 196.789 229.215 193.987 231.868 191.627C234.521 189.267 236.824 196.789 236.824 196.789Z" fill="#0668E3"/>
<path d="M248.423 202.615C248.423 202.615 240.877 198.266 240.996 203.316C241.115 208.365 248.423 202.615 248.423 202.615Z" fill="#0668E3"/>
<path d="M249.2 220.893C249.2 220.893 254.506 214.864 255.465 217.889C256.424 220.914 249.2 220.893 249.2 220.893Z" fill="#0668E3"/>
<path d="M245.931 200.241C245.931 200.241 238.357 195.507 241.871 193.238C245.385 190.969 245.931 200.241 245.931 200.241Z" fill="#0668E3"/>
<path d="M239.953 197.489C239.953 197.489 232.435 198.665 234.794 201.691C237.153 204.716 239.953 197.489 239.953 197.489Z" fill="#0668E3"/>
<path d="M251.139 210.431C251.139 210.431 248.339 203.582 245.686 207.104C243.033 210.627 251.139 210.431 251.139 210.431Z" fill="#0668E3"/>
<g opacity="0.4">
<path d="M249.2 220.893C249.2 220.893 254.506 214.864 255.465 217.889C256.424 220.914 249.2 220.893 249.2 220.893Z" fill="white"/>
<path d="M245.931 200.241C245.931 200.241 238.357 195.507 241.871 193.238C245.385 190.969 245.931 200.241 245.931 200.241Z" fill="white"/>
<path d="M239.953 197.489C239.953 197.489 232.435 198.665 234.794 201.691C237.153 204.716 239.953 197.489 239.953 197.489Z" fill="white"/>
<path d="M251.139 210.431C251.139 210.431 248.339 203.582 245.686 207.104C243.033 210.627 251.139 210.431 251.139 210.431Z" fill="white"/>
</g>
<path d="M250.173 217.875C250.173 217.875 249.102 209.912 245.399 212.609C241.696 215.305 250.173 217.875 250.173 217.875Z" fill="#0668E3"/>
<path d="M247.856 225.158C250.246 220.941 251.563 216.201 251.692 211.355C251.741 201.859 244.258 197.279 235.634 196.032C234.934 195.934 234.934 197.013 235.634 197.111C240.212 197.769 245.147 199.212 248.101 203.049C250.201 205.795 250.831 209.303 250.586 212.7C250.238 216.882 248.999 220.941 246.953 224.605C246.617 225.207 247.534 225.775 247.877 225.165L247.856 225.158Z" fill="#0668E3"/>
<g opacity="0.3">
<path d="M247.856 225.158C250.246 220.941 251.563 216.201 251.692 211.355C251.741 201.859 244.258 197.279 235.634 196.032C234.934 195.934 234.934 197.013 235.634 197.111C240.212 197.769 245.147 199.212 248.101 203.049C250.201 205.795 250.831 209.303 250.586 212.7C250.238 216.882 248.999 220.941 246.953 224.605C246.617 225.207 247.534 225.775 247.877 225.165L247.856 225.158Z" fill="#333333"/>
</g>
<path d="M269.64 223.19L266.931 243.633C266.761 244.904 266.136 246.07 265.172 246.915C264.208 247.76 262.97 248.226 261.688 248.227H244.839C243.557 248.226 242.319 247.76 241.355 246.915C240.391 246.07 239.766 244.904 239.596 243.633L236.887 223.19H269.64Z" fill="#0668E3"/>
<path opacity="0.3" d="M269.64 223.19L266.931 243.633C266.761 244.904 266.136 246.07 265.172 246.915C264.208 247.76 262.97 248.226 261.688 248.227H244.839C243.557 248.226 242.319 247.76 241.355 246.915C240.391 246.07 239.766 244.904 239.596 243.633L236.887 223.19H269.64Z" fill="white"/>
<path d="M117.509 183.924H112.91V214.163H117.509V183.924Z" fill="#333333"/>
<path opacity="0.5" d="M117.509 183.924H112.91V214.163H117.509V183.924Z" fill="white"/>
<path d="M129.185 236.812L118.412 234.865V213.225C118.413 213.066 118.382 212.908 118.322 212.76C118.261 212.613 118.172 212.479 118.059 212.366C117.947 212.253 117.813 212.164 117.666 212.104C117.518 212.043 117.36 212.012 117.201 212.013H113.218C113.058 212.012 112.9 212.043 112.752 212.104C112.605 212.164 112.47 212.253 112.357 212.366C112.244 212.478 112.154 212.612 112.093 212.76C112.032 212.907 112 213.065 112 213.225V234.865L101.234 236.812C100.478 236.946 99.7939 237.343 99.3012 237.932C98.8084 238.521 98.5386 239.265 98.539 240.033L115.206 238.527L131.88 240.033C131.879 239.265 131.609 238.522 131.116 237.934C130.624 237.345 129.94 236.948 129.185 236.812Z" fill="#333333"/>
<path d="M102.039 243.304C102.039 243.996 101.834 244.673 101.449 245.249C101.065 245.825 100.518 246.274 99.8783 246.539C99.2388 246.804 98.5351 246.873 97.8561 246.738C97.1772 246.603 96.5536 246.269 96.0641 245.779C95.5746 245.29 95.2412 244.666 95.1062 243.987C94.9711 243.307 95.0405 242.603 95.3054 241.964C95.5703 241.324 96.0189 240.777 96.5944 240.392C97.17 240.007 97.8467 239.802 98.5389 239.802C99.4672 239.802 100.357 240.171 101.014 240.828C101.67 241.484 102.039 242.375 102.039 243.304Z" fill="#0668E3"/>
<path d="M135.38 243.304C135.38 243.996 135.175 244.673 134.79 245.249C134.405 245.825 133.859 246.274 133.219 246.539C132.58 246.804 131.876 246.873 131.197 246.738C130.518 246.603 129.895 246.269 129.405 245.779C128.916 245.29 128.582 244.666 128.447 243.987C128.312 243.307 128.381 242.603 128.646 241.964C128.911 241.324 129.36 240.777 129.935 240.392C130.511 240.007 131.188 239.802 131.88 239.802C132.34 239.802 132.795 239.892 133.219 240.068C133.644 240.244 134.03 240.502 134.355 240.828C134.68 241.153 134.938 241.539 135.114 241.964C135.289 242.388 135.38 242.844 135.38 243.304Z" fill="#0668E3"/>
<path d="M117.943 243.304C117.943 245.236 117.145 246.805 115.206 246.805C113.267 246.805 112.476 245.236 112.476 243.304C112.476 241.371 113.274 239.802 115.206 239.802C117.138 239.802 117.943 241.371 117.943 243.304Z" fill="#0668E3"/>
<g opacity="0.5">
<path d="M118.517 234.879V238.828L119.819 238.948V235.117L118.517 234.879Z" fill="#333333"/>
<path d="M110.628 235.11V238.94L111.93 238.828V234.879L110.628 235.11Z" fill="#333333"/>
</g>
<path d="M85.183 156.38C84.8929 156.381 84.6063 156.445 84.3436 156.568C84.081 156.692 83.8486 156.871 83.663 157.094C83.4774 157.317 83.343 157.579 83.2694 157.859C83.1958 158.14 83.1847 158.434 83.237 158.719L87.507 181.739C87.7 182.785 88.2531 183.73 89.0702 184.411C89.8873 185.091 90.9168 185.464 91.98 185.464H159.271C159.668 185.464 160.061 185.386 160.427 185.234C160.794 185.082 161.127 184.859 161.407 184.578C161.687 184.297 161.909 183.963 162.06 183.596C162.212 183.229 162.289 182.836 162.288 182.439C162.288 181.301 161.836 180.209 161.031 179.404C160.227 178.598 159.135 178.146 157.997 178.146H119.602C118.584 178.146 117.596 177.806 116.794 177.179C115.992 176.552 115.423 175.675 115.178 174.687L111.741 160.806C111.428 159.544 110.702 158.422 109.679 157.62C108.655 156.818 107.392 156.381 106.092 156.38H85.183Z" fill="#333333"/>
<path d="M94.269 174.687L90.832 160.806C90.5194 159.544 89.7935 158.422 88.7697 157.62C87.746 156.818 86.4834 156.381 85.183 156.38C84.8929 156.381 84.6063 156.445 84.3436 156.568C84.081 156.692 83.8486 156.871 83.663 157.094C83.4774 157.317 83.343 157.579 83.2694 157.859C83.1958 158.14 83.1847 158.434 83.237 158.719L87.507 181.739C87.7 182.785 88.2531 183.73 89.0702 184.411C89.8873 185.091 90.9168 185.464 91.98 185.464H138.355C138.752 185.465 139.146 185.388 139.513 185.236C139.881 185.084 140.214 184.861 140.495 184.58C140.776 184.299 140.999 183.965 141.151 183.598C141.302 183.23 141.38 182.837 141.379 182.439C141.377 181.301 140.924 180.21 140.12 179.406C139.316 178.601 138.225 178.148 137.088 178.146H98.7C97.6809 178.149 96.6902 177.81 95.8867 177.183C95.0833 176.555 94.5136 175.676 94.269 174.687Z" fill="#333333"/>
<path opacity="0.2" d="M94.269 174.687L90.832 160.806C90.5194 159.544 89.7935 158.422 88.7697 157.62C87.746 156.818 86.4834 156.381 85.183 156.38C84.8929 156.381 84.6063 156.445 84.3436 156.568C84.081 156.692 83.8486 156.871 83.663 157.094C83.4774 157.317 83.343 157.579 83.2694 157.859C83.1958 158.14 83.1847 158.434 83.237 158.719L87.507 181.739C87.7 182.785 88.2531 183.73 89.0702 184.411C89.8873 185.091 90.9168 185.464 91.98 185.464H138.355C138.752 185.465 139.146 185.388 139.513 185.236C139.881 185.084 140.214 184.861 140.495 184.58C140.776 184.299 140.999 183.965 141.151 183.598C141.302 183.23 141.38 182.837 141.379 182.439C141.377 181.301 140.924 180.21 140.12 179.406C139.316 178.601 138.225 178.148 137.088 178.146H98.7C97.6809 178.149 96.6902 177.81 95.8867 177.183C95.0833 176.555 94.5136 175.676 94.269 174.687Z" fill="white"/>
<path d="M122.696 90.5157C122.696 90.5157 130.354 92.7987 126.777 98.4643L123.452 93.6181L122.696 90.5157Z" fill="#333333"/>
<path d="M150.283 119.719L153.622 114.817L156.926 115.867L157.528 117.198L153.412 123.087L150.283 119.719Z" fill="#DBB178"/>
<path d="M155.232 121C151.886 126.253 146.608 133.914 144.592 133.459C138.67 132.135 130.529 126.526 126.35 120.363C125.719 119.433 125.46 118.3 125.625 117.189C125.79 116.077 126.366 115.068 127.239 114.361V114.319C127.695 113.947 128.219 113.669 128.783 113.5C129.346 113.33 129.937 113.274 130.523 113.334C131.108 113.394 131.675 113.569 132.193 113.848C132.711 114.128 133.168 114.507 133.539 114.964C133.616 115.055 133.686 115.153 133.756 115.251C137.459 120.566 142.156 125.608 142.926 126.036C143.829 126.554 146.174 124.334 151.137 118.059L155.232 121Z" fill="#0668E3"/>
<path opacity="0.6" d="M155.232 121C151.886 126.253 146.608 133.914 144.592 133.459C138.67 132.135 130.529 126.526 126.35 120.363C125.719 119.433 125.46 118.3 125.625 117.189C125.79 116.077 126.366 115.068 127.239 114.361V114.319C127.695 113.947 128.219 113.669 128.783 113.5C129.346 113.33 129.937 113.274 130.523 113.334C131.108 113.394 131.675 113.569 132.193 113.848C132.711 114.128 133.168 114.507 133.539 114.964C133.616 115.055 133.686 115.153 133.756 115.251C137.459 120.566 142.156 125.608 142.926 126.036C143.829 126.554 146.174 124.334 151.137 118.059L155.232 121Z" fill="white"/>
<path d="M155.309 116.763L161.924 118.059L158.844 112.513C158.844 112.513 154.84 112.513 153.622 114.817L155.309 116.763Z" fill="#DBB178"/>
<path opacity="0.2" d="M136.15 129.628C131.355 126.351 130.718 118.661 130.718 118.661L128.002 117.422L126.7 120.881C129.302 124.339 132.502 127.302 136.15 129.628Z" fill="#333333"/>
<path d="M166.6 115.685L163.772 111.175L158.851 112.513L161.924 118.059L166.6 115.685Z" fill="#DBB178"/>
<path d="M129.864 146.464L106.4 148.005C106.4 148.005 106.232 141.702 105.413 135.896C105.159 133.876 104.756 131.877 104.209 129.915C103.6 127.912 102.809 125.664 101.899 123.052C101.78 122.73 101.661 122.408 101.528 122.072C101.22 121.259 100.905 120.412 100.548 119.53V119.488C100.231 118.625 100.265 117.673 100.644 116.836C101.022 115.999 101.714 115.344 102.571 115.013C102.732 114.95 102.899 114.901 103.068 114.866C104.559 114.55 106.064 114.263 107.59 114.025L108.906 113.829C112.419 113.305 115.96 112.987 119.511 112.877C121.352 112.877 123.319 112.933 124.999 113.01L126.399 113.08C128.177 113.185 129.409 113.297 129.409 113.297C129.409 113.297 130.179 113.451 130.634 117.576C130.644 117.81 130.668 118.044 130.704 118.276C130.76 119.131 130.809 120.209 130.83 121.505C130.9 126.799 130.585 135.686 129.864 146.464Z" fill="#0668E3"/>
<path opacity="0.6" d="M129.864 146.464L106.4 148.005C106.4 148.005 106.232 141.702 105.413 135.896C105.159 133.876 104.756 131.877 104.209 129.915C103.6 127.912 102.809 125.664 101.899 123.052C101.78 122.73 101.661 122.408 101.528 122.072C101.22 121.259 100.905 120.412 100.548 119.53V119.488C100.231 118.625 100.265 117.673 100.644 116.836C101.022 115.999 101.714 115.344 102.571 115.013C102.732 114.95 102.899 114.901 103.068 114.866C104.559 114.55 106.064 114.263 107.59 114.025L108.906 113.829C112.419 113.305 115.96 112.987 119.511 112.877C121.352 112.877 123.319 112.933 124.999 113.01L126.399 113.08C128.177 113.185 129.409 113.297 129.409 113.297C129.409 113.297 130.179 113.451 130.634 117.576C130.644 117.81 130.668 118.044 130.704 118.276C130.76 119.131 130.809 120.209 130.83 121.505C130.9 126.799 130.585 135.686 129.864 146.464Z" fill="white"/>
<path d="M109.725 113.717L115.577 121.519L119.777 117.919L125.237 120.552L122.283 112.912C121.373 112.912 120.435 112.912 119.532 112.912C116.251 113.001 112.977 113.269 109.725 113.717Z" fill="#0668E3"/>
<path opacity="0.9" d="M109.725 113.717L115.577 121.519L119.777 117.919L125.237 120.552L122.283 112.912C121.373 112.912 120.435 112.912 119.532 112.912C116.251 113.001 112.977 113.269 109.725 113.717Z" fill="white"/>
<path d="M161.518 240.607H156.527L158.802 202.916H168.14L161.518 240.607Z" fill="#DBB178"/>
<path d="M155.974 240.131C155.918 239.655 161.875 239.207 161.875 239.207C161.875 239.207 166.019 242.4 169.659 242.708C173.299 243.016 171.626 245.432 167.685 245.979L157.934 247.379C155.134 247.792 156.548 245.11 155.974 240.131Z" fill="#333333"/>
<path d="M164.864 240.334C164.104 240.29 163.354 240.146 162.631 239.907C162.602 239.9 162.575 239.886 162.554 239.865C162.54 239.817 162.54 239.766 162.554 239.718C162.554 239.655 162.883 238.177 163.646 237.743C163.76 237.673 163.888 237.629 164.021 237.613C164.154 237.598 164.289 237.611 164.416 237.652C164.787 237.764 164.885 237.974 164.892 238.121C164.892 238.422 164.605 238.758 164.192 239.067C164.59 238.954 165.012 238.954 165.41 239.067C165.497 239.099 165.576 239.149 165.643 239.213C165.71 239.277 165.764 239.353 165.802 239.438C165.86 239.548 165.886 239.673 165.874 239.797C165.863 239.922 165.816 240.04 165.739 240.138C165.484 240.316 165.17 240.386 164.864 240.334ZM163.261 239.704C164.157 239.935 165.207 240.089 165.438 239.837C165.494 239.788 165.48 239.683 165.438 239.557C165.421 239.516 165.395 239.479 165.363 239.449C165.33 239.418 165.291 239.396 165.249 239.382C164.569 239.301 163.88 239.413 163.261 239.704ZM164.073 237.953C163.969 237.953 163.867 237.982 163.779 238.037C163.38 238.384 163.099 238.847 162.974 239.361C163.744 238.92 164.514 238.366 164.514 238.128C164.514 238.086 164.43 238.03 164.297 237.981C164.224 237.961 164.149 237.952 164.073 237.953Z" fill="#0668E3"/>
<path opacity="0.2" d="M158.403 209.506L166.936 209.765L168.14 202.916H158.802L158.403 209.506Z" fill="#333333"/>
<path d="M137.564 241.245L132.783 240.607L140.35 198.876L149.786 201.572L137.564 241.245Z" fill="#DBB178"/>
<path d="M132.16 239.942C132.16 239.452 138.124 239.942 138.124 239.942C138.124 239.942 141.743 243.717 145.292 244.564C148.841 245.411 146.832 247.561 142.856 247.505L133 247.386C130.151 247.358 131.971 244.97 132.16 239.942Z" fill="#333333"/>
<path d="M141.26 241.497C140.388 241.389 139.542 241.128 138.761 240.726L138.712 240.684C138.709 240.677 138.707 240.668 138.707 240.66C138.707 240.651 138.709 240.643 138.712 240.635C138.701 240.613 138.696 240.59 138.696 240.565C138.696 240.541 138.701 240.517 138.712 240.495C138.712 240.439 139.258 239.039 140.112 238.709C140.233 238.654 140.364 238.625 140.497 238.625C140.63 238.625 140.761 238.654 140.882 238.709C141.232 238.884 141.295 239.095 141.281 239.242C141.281 239.543 140.903 239.83 140.462 240.068C140.873 240.018 141.29 240.083 141.666 240.257C141.747 240.3 141.817 240.36 141.873 240.432C141.928 240.505 141.967 240.588 141.988 240.677C142.033 240.791 142.041 240.916 142.013 241.035C141.984 241.154 141.919 241.262 141.827 241.343C141.663 241.461 141.461 241.515 141.26 241.497ZM139.391 240.6C140.245 240.964 141.26 241.301 141.491 241.062C141.547 241.02 141.561 240.922 141.491 240.782C141.48 240.741 141.461 240.702 141.435 240.668C141.408 240.634 141.375 240.606 141.337 240.586C140.698 240.421 140.027 240.425 139.391 240.6ZM140.371 238.99C140.294 238.992 140.218 239.009 140.147 239.039C139.706 239.318 139.361 239.726 139.16 240.208C140.014 239.893 140.819 239.438 140.833 239.214C140.833 239.172 140.763 239.102 140.644 239.046C140.569 239.008 140.489 238.985 140.406 238.976L140.371 238.99Z" fill="#0668E3"/>
<path opacity="0.2" d="M149.786 201.572L140.35 198.876L138.859 207.104L147.595 208.68L149.786 201.572Z" fill="#333333"/>
<path d="M156.331 206.152L168.336 206.782C171.409 192.622 174.475 177.012 173.866 173.587C172.711 167.025 163.8 160.344 129.206 154.679L113.106 178.881C113.106 178.881 136.654 177.782 158.116 177.782C158.109 177.796 156.912 191.27 156.331 206.152Z" fill="#0668E3"/>
<path opacity="0.1" d="M156.331 206.152L168.336 206.782C171.409 192.622 174.475 177.012 173.866 173.587C172.711 167.025 163.8 160.344 129.206 154.679L113.106 178.881C113.106 178.881 136.654 177.782 158.116 177.782C158.109 177.796 156.912 191.27 156.331 206.152Z" fill="#333333"/>
<path d="M155.526 204.268L155.883 207.412L169.036 207.861L169.68 204.968L155.526 204.268Z" fill="#0668E3"/>
<path d="M121.541 112.898H119.511C116.599 112.989 113.694 113.227 110.803 113.598C112.063 115.104 115.99 117.45 118.622 117.45C122.297 117.422 121.478 114.691 121.541 112.898Z" fill="#DBB178"/>
<path d="M137.669 203.715L149.94 205.711C154.924 191.753 159.908 176.9 159.824 173.552C159.656 166.885 158.193 163.426 134.092 158.047C134.092 158.047 132.811 156.177 129.892 146.492L106.4 148.033C106.4 148.033 95.683 167.781 103.978 176.213C105.812 178.09 109.417 178.931 113.078 178.896C113.078 178.896 121.548 178.938 142.478 177.957C142.485 177.957 140 189.904 137.669 203.715Z" fill="#0668E3"/>
<path d="M137.179 201.572L151.396 203.974L150.045 206.964L137.116 204.842L137.179 201.572Z" fill="#0668E3"/>
<path opacity="0.1" d="M155.526 204.268L155.883 207.412L169.036 207.861L169.68 204.968L155.526 204.268Z" fill="#333333"/>
<path d="M119.763 110.874C119.493 112.603 119.564 114.369 119.973 116.07L113.54 115.125C113.401 115.104 113.269 115.052 113.154 114.972C113.039 114.892 112.944 114.787 112.876 114.664C112.809 114.542 112.77 114.405 112.764 114.265C112.757 114.125 112.784 113.986 112.84 113.857C113.722 111.854 114.072 107.821 114.289 105.965C114.408 104.844 114.457 103.822 114.464 103.107C114.471 102.393 114.464 102.127 114.464 102.127L117.341 103.444L122.038 105.594C120.955 107.195 120.183 108.987 119.763 110.874Z" fill="#DBB178"/>
<path opacity="0.2" d="M122.052 105.594C120.959 107.194 120.175 108.985 119.742 110.874C117.395 109.943 115.456 108.204 114.275 105.972C114.401 104.851 114.45 103.829 114.457 103.114C115.479 103.219 116.431 103.325 117.341 103.451L122.052 105.594Z" fill="#333333"/>
<path d="M122.395 100.999C122.206 103.149 123.305 104.886 124.845 104.886C126.385 104.886 127.792 103.149 127.981 100.999C128.17 98.8495 127.071 97.1057 125.531 97.1057C123.991 97.1057 122.584 98.8495 122.395 100.999Z" fill="#0668E3"/>
<path opacity="0.5" d="M122.122 100.999C121.933 103.149 123.032 104.886 124.572 104.886C126.112 104.886 127.512 103.149 127.701 100.999C127.89 98.8495 126.791 97.1057 125.251 97.1057C123.711 97.1057 122.304 98.8495 122.122 100.999Z" fill="#333333"/>
<path d="M111.349 97.2178C112.497 102.484 112.896 105.622 116.004 108.024C117.006 108.82 118.207 109.326 119.476 109.487C120.745 109.648 122.035 109.458 123.204 108.938C124.373 108.417 125.377 107.586 126.107 106.535C126.837 105.483 127.264 104.252 127.344 102.974C127.757 98.0722 125.811 90.2776 120.267 88.786C119.075 88.4301 117.811 88.3943 116.601 88.6822C115.391 88.9701 114.279 89.5715 113.375 90.4261C112.471 91.2806 111.808 92.3582 111.452 93.5504C111.097 94.7426 111.061 96.0074 111.349 97.2178Z" fill="#DBB178"/>
<path d="M110.131 102.715C110.983 103.745 112.166 104.447 113.477 104.704C115.136 104.984 115.514 103.45 114.667 101.959C113.911 100.621 112.126 98.8634 110.642 99.2556C109.158 99.6478 109.06 101.42 110.131 102.715Z" fill="#DBB178"/>
<path d="M119.658 97.7359C119.728 98.1701 120.008 98.4923 120.295 98.4362C120.582 98.3802 120.75 98.023 120.687 97.5959C120.624 97.1687 120.337 96.8395 120.05 96.8955C119.763 96.9516 119.595 97.3017 119.658 97.7359Z" fill="#333333"/>
<path d="M124.6 97.1547C124.663 97.5889 124.95 97.911 125.23 97.855C125.51 97.799 125.692 97.4418 125.629 97.0076C125.566 96.5735 125.272 96.2583 124.992 96.3073C124.712 96.3564 124.495 96.7205 124.6 97.1547Z" fill="#333333"/>
<path d="M123.039 97.5539C123.763 98.8157 124.651 99.9765 125.678 101.006C125.41 101.253 125.091 101.437 124.744 101.546C124.397 101.655 124.03 101.686 123.669 101.637L123.039 97.5539Z" fill="#C0854B"/>
<path d="M117.901 96.3424C117.859 96.3517 117.816 96.3517 117.775 96.3424C117.745 96.3263 117.719 96.3044 117.697 96.2779C117.676 96.2514 117.661 96.2209 117.651 96.1882C117.642 96.1555 117.64 96.1213 117.644 96.0876C117.649 96.0539 117.66 96.0215 117.677 95.9922C117.865 95.6349 118.139 95.3296 118.473 95.1036C118.808 94.8775 119.193 94.7377 119.595 94.6966C119.628 94.6937 119.662 94.6977 119.694 94.7083C119.725 94.7189 119.754 94.7358 119.779 94.7581C119.804 94.7805 119.824 94.8076 119.838 94.838C119.852 94.8684 119.86 94.9013 119.861 94.9347C119.864 94.9684 119.86 95.0023 119.849 95.0345C119.839 95.0666 119.822 95.0963 119.8 95.1217C119.778 95.1472 119.751 95.168 119.72 95.1828C119.69 95.1976 119.657 95.2061 119.623 95.2078C119.307 95.2435 119.005 95.3568 118.744 95.5376C118.482 95.7185 118.27 95.9613 118.125 96.2443C118.099 96.2778 118.064 96.3043 118.025 96.3214C117.986 96.3385 117.943 96.3457 117.901 96.3424Z" fill="#333333"/>
<path d="M126.413 95.2429C126.371 95.2443 126.33 95.2347 126.293 95.215C126.256 95.1953 126.225 95.1663 126.203 95.1308C126.025 94.854 125.787 94.6216 125.505 94.4517C125.223 94.2817 124.907 94.1786 124.579 94.1504C124.518 94.1403 124.464 94.1091 124.424 94.0623C124.384 94.0155 124.362 93.9561 124.362 93.8948C124.362 93.8334 124.384 93.774 124.424 93.7272C124.464 93.6804 124.518 93.6492 124.579 93.6392C124.99 93.6664 125.389 93.7895 125.744 93.9987C126.099 94.2079 126.4 94.4972 126.623 94.8437C126.661 94.8996 126.676 94.9684 126.664 95.0351C126.653 95.1019 126.615 95.1614 126.56 95.2009C126.516 95.2276 126.465 95.2421 126.413 95.2429Z" fill="#333333"/>
<path d="M112.378 104.144C112.378 104.144 115.724 100.719 114.086 92.3155C114.086 92.3155 116.781 94.6055 123.039 92.9108C123.039 92.9108 119.336 93.275 117.642 91.5102C117.642 91.5102 121.093 93.1139 126.672 91.5102C126.672 91.5102 125.678 85.8586 119.672 85.5715C119.672 85.5715 121.611 83.9397 123.48 84.2549C123.48 84.2549 121.569 82.6091 116.718 85.8096L114.8 86.5939C114.8 86.5939 109.396 84.6471 106.4 89.2271C104.013 92.8478 105.21 104.249 112.378 104.144Z" fill="#333333"/>
<path d="M124.649 102.596C124.649 102.596 122.955 102.169 118.181 102.064C118.713 103.514 119.728 104.711 122.178 104.739C122.483 104.773 122.792 104.743 123.085 104.652C123.379 104.561 123.65 104.41 123.882 104.209C124.114 104.007 124.302 103.76 124.434 103.483C124.566 103.205 124.639 102.903 124.649 102.596Z" fill="#333333"/>
<path d="M121.1 103.584C122.041 103.549 122.969 103.811 123.753 104.334C123.295 104.627 122.756 104.767 122.213 104.733C121.276 104.773 120.351 104.51 119.574 103.983C120.028 103.693 120.562 103.553 121.1 103.584Z" fill="#D7263D"/>
<path d="M124.432 102.555C124.382 102.731 124.284 102.89 124.15 103.013C124.015 103.137 123.848 103.221 123.669 103.256C122.259 103.223 120.854 103.073 119.469 102.807C119.247 102.787 119.034 102.713 118.849 102.591C118.663 102.468 118.51 102.302 118.405 102.106C120.422 102.099 122.437 102.249 124.432 102.555Z" fill="white"/>
<path d="M109.781 99.0316V93.38C109.781 91.7073 110.32 90.0792 111.319 88.7379C112.318 87.3966 113.723 86.4138 115.325 85.9357L117.215 85.5995C115.572 86.0898 114.131 87.0976 113.107 88.473C112.083 89.8484 111.53 91.5179 111.531 93.233V99.0316H109.781Z" fill="#0668E3"/>
<path d="M114.17 101.77C114.359 103.92 113.26 105.657 111.72 105.657C110.18 105.657 108.773 103.92 108.591 101.77C108.409 99.6198 109.501 97.8761 111.041 97.8761C112.581 97.8761 113.981 99.6198 114.17 101.77Z" fill="#0668E3"/>
<path opacity="0.5" d="M114.17 101.77C114.359 103.92 113.26 105.657 111.72 105.657C110.18 105.657 108.773 103.92 108.591 101.77C108.409 99.6198 109.501 97.8761 111.041 97.8761C112.581 97.8761 113.981 99.6198 114.17 101.77Z" fill="#333333"/>
<path d="M113.239 101.77C113.421 103.92 112.329 105.657 110.782 105.657C109.235 105.657 107.842 103.92 107.653 101.77C107.464 99.6198 108.563 97.8761 110.103 97.8761C111.643 97.8761 113.05 99.6198 113.239 101.77Z" fill="#0668E3"/>
<path opacity="0.3" d="M111.3 102.337L111.174 101.202H111.391C111.111 100.089 110.327 99.2556 109.466 99.2556C108.605 99.2556 107.975 100.089 107.884 101.202H108.031L108.157 102.337H107.989C108.269 103.451 109.053 104.277 109.907 104.277C110.761 104.277 111.405 103.451 111.489 102.337H111.3Z" fill="white"/>
<path d="M101.241 102.246L104.3 96.2233L106.771 102.064C106.771 102.064 104.293 105.215 101.738 104.76L101.241 102.246Z" fill="#DBB178"/>
<path d="M109.053 94.0033L110.852 99.0106L106.764 102.064L104.3 96.2233L109.053 94.0033Z" fill="#DBB178"/>
<path d="M102.046 108.731L104.986 103.78L104.678 101.763L102.088 100.845L98.3989 106.588L102.046 108.731Z" fill="#DBB178"/>
<path d="M104.167 105.65L98.798 117.471C98.798 117.471 101.409 115.125 102.851 114.789C105.147 114.249 112.077 116.343 105.056 123.97C105.056 123.97 91.154 132.661 88.319 129.292C86.114 126.673 95.48 110.755 99.771 103.78L104.167 105.65Z" fill="#0668E3"/>
<path opacity="0.6" d="M104.167 105.65L98.798 117.471C98.798 117.471 101.409 115.125 102.851 114.789C105.147 114.249 112.077 116.343 105.056 123.97C105.056 123.97 91.154 132.661 88.319 129.292C86.114 126.673 95.48 110.755 99.771 103.78L104.167 105.65Z" fill="white"/>
<path opacity="0.2" d="M98.798 117.471L97.3 122.086L101.696 115.321C100.671 115.954 99.7012 116.673 98.798 117.471Z" fill="#333333"/>
<path d="M118.909 106.987C118.321 107.002 117.733 106.965 117.152 106.875C115.654 106.336 114.204 105.671 112.819 104.886L113.099 104.382C114.444 105.137 115.849 105.781 117.299 106.308C118.79 106.431 120.288 106.431 121.779 106.308L121.821 106.889C121.709 106.889 120.239 106.987 118.909 106.987Z" fill="#0668E3"/>
<path d="M119.539 107.107L122.339 106.897C122.339 106.897 122.262 106.028 120.939 106.063C119.616 106.098 119.539 107.107 119.539 107.107Z" fill="#0668E3"/>
<g opacity="0.5">
<path d="M118.909 106.987C118.321 107.002 117.733 106.965 117.152 106.875C115.654 106.336 114.204 105.671 112.819 104.886L113.099 104.382C114.444 105.137 115.849 105.781 117.299 106.308C118.79 106.431 120.288 106.431 121.779 106.308L121.821 106.889C121.709 106.889 120.239 106.987 118.909 106.987Z" fill="#333333"/>
<path d="M119.539 107.107L122.339 106.897C122.339 106.897 122.262 106.028 120.939 106.063C119.616 106.098 119.539 107.107 119.539 107.107Z" fill="#333333"/>
</g>
<path d="M231.042 247.589C230.895 247.595 230.748 247.572 230.61 247.52C230.472 247.469 230.346 247.391 230.238 247.291C230.13 247.191 230.043 247.071 229.981 246.937C229.92 246.803 229.885 246.658 229.88 246.511L222.88 165.428C222.868 164.729 222.595 164.06 222.114 163.552C221.634 163.044 220.98 162.734 220.283 162.683H187.215C186.518 162.734 185.865 163.044 185.384 163.552C184.903 164.06 184.63 164.729 184.618 165.428L177.618 246.511C177.617 246.661 177.586 246.81 177.527 246.948C177.468 247.085 177.381 247.21 177.273 247.314C177.164 247.418 177.036 247.499 176.896 247.552C176.756 247.605 176.606 247.63 176.456 247.624C176.154 247.563 175.886 247.388 175.709 247.135C175.532 246.882 175.458 246.571 175.504 246.266L182.504 165.176C182.749 162.34 184.772 160.204 187.215 160.204H220.283C222.726 160.204 224.749 162.34 224.994 165.176L231.994 246.266C232.04 246.571 231.966 246.882 231.789 247.135C231.612 247.388 231.345 247.563 231.042 247.624V247.589Z" fill="#0668E3"/>
<g opacity="0.4">
<path d="M231.042 247.589C230.895 247.595 230.748 247.572 230.61 247.52C230.472 247.469 230.346 247.391 230.238 247.291C230.13 247.191 230.043 247.071 229.981 246.937C229.92 246.803 229.885 246.658 229.88 246.511L222.88 165.428C222.868 164.729 222.595 164.06 222.114 163.552C221.634 163.044 220.98 162.734 220.283 162.683H187.215C186.518 162.734 185.865 163.044 185.384 163.552C184.903 164.06 184.63 164.729 184.618 165.428L177.618 246.511C177.617 246.661 177.586 246.81 177.527 246.948C177.468 247.085 177.381 247.21 177.273 247.314C177.164 247.418 177.036 247.499 176.896 247.552C176.756 247.605 176.606 247.63 176.456 247.624C176.154 247.563 175.886 247.388 175.709 247.135C175.532 246.882 175.458 246.571 175.504 246.266L182.504 165.176C182.749 162.34 184.772 160.204 187.215 160.204H220.283C222.726 160.204 224.749 162.34 224.994 165.176L231.994 246.266C232.04 246.571 231.966 246.882 231.789 247.135C231.612 247.388 231.345 247.563 231.042 247.624V247.589Z" fill="#333333"/>
</g>
<path d="M230.58 156.695H140.693C139.908 156.695 139.272 157.332 139.272 158.117V162.725C139.272 163.51 139.908 164.147 140.693 164.147H230.58C231.365 164.147 232.001 163.51 232.001 162.725V158.117C232.001 157.332 231.365 156.695 230.58 156.695Z" fill="#333333"/>
<path opacity="0.2" d="M191.31 156.695H230.58C230.951 156.695 231.307 156.843 231.57 157.106C231.832 157.368 231.98 157.725 231.98 158.096V162.704C231.98 163.076 231.832 163.432 231.57 163.695C231.307 163.957 230.951 164.105 230.58 164.105H191.31V156.695Z" fill="white"/>
<path d="M194.824 247.589C194.673 247.596 194.523 247.572 194.382 247.519C194.241 247.466 194.112 247.385 194.003 247.281C193.894 247.178 193.806 247.053 193.747 246.914C193.687 246.776 193.656 246.627 193.655 246.476L186.655 165.393C186.643 164.694 186.37 164.025 185.889 163.517C185.408 163.009 184.755 162.699 184.058 162.648H150.99C150.294 162.7 149.642 163.011 149.163 163.519C148.684 164.027 148.412 164.695 148.4 165.393L141.4 246.511C141.399 246.661 141.368 246.81 141.309 246.947C141.25 247.085 141.163 247.21 141.055 247.314C140.946 247.418 140.818 247.499 140.678 247.552C140.538 247.605 140.388 247.63 140.238 247.624C139.931 247.56 139.661 247.378 139.486 247.118C139.311 246.858 139.244 246.54 139.3 246.231L146.3 165.141C146.545 162.305 148.575 160.169 151.011 160.169H184.079C186.522 160.169 188.545 162.305 188.79 165.141L195.79 246.231C195.836 246.535 195.763 246.846 195.588 247.098C195.412 247.351 195.146 247.527 194.845 247.589H194.824Z" fill="#0668E3"/>
<g opacity="0.4">
<path d="M194.824 247.589C194.673 247.596 194.523 247.572 194.382 247.519C194.241 247.466 194.112 247.385 194.003 247.281C193.894 247.178 193.806 247.053 193.747 246.914C193.687 246.776 193.656 246.627 193.655 246.476L186.655 165.393C186.643 164.694 186.37 164.025 185.889 163.517C185.408 163.009 184.755 162.699 184.058 162.648H150.99C150.294 162.7 149.642 163.011 149.163 163.519C148.684 164.027 148.412 164.695 148.4 165.393L141.4 246.511C141.399 246.661 141.368 246.81 141.309 246.947C141.25 247.085 141.163 247.21 141.055 247.314C140.946 247.418 140.818 247.499 140.678 247.552C140.538 247.605 140.388 247.63 140.238 247.624C139.931 247.56 139.661 247.378 139.486 247.118C139.311 246.858 139.244 246.54 139.3 246.231L146.3 165.141C146.545 162.305 148.575 160.169 151.011 160.169H184.079C186.522 160.169 188.545 162.305 188.79 165.141L195.79 246.231C195.836 246.535 195.763 246.846 195.588 247.098C195.412 247.351 195.146 247.527 194.845 247.589H194.824Z" fill="#333333"/>
</g>
<path d="M168.931 153.026H194.873V155.47C194.873 155.795 194.744 156.107 194.514 156.337C194.285 156.566 193.973 156.696 193.648 156.696H170.156C169.831 156.696 169.52 156.566 169.29 156.337C169.06 156.107 168.931 155.795 168.931 155.47V153.04V153.026Z" fill="#333333"/>
<path opacity="0.2" d="M168.931 153.026H194.873V155.47C194.873 155.795 194.744 156.107 194.514 156.337C194.285 156.566 193.973 156.696 193.648 156.696H170.156C169.831 156.696 169.52 156.566 169.29 156.337C169.06 156.107 168.931 155.795 168.931 155.47V153.04V153.026Z" fill="white"/>
<path d="M150.584 153.026H176.526V155.47C176.526 155.795 176.397 156.107 176.167 156.337C175.937 156.566 175.626 156.696 175.301 156.696H151.809C151.484 156.696 151.173 156.566 150.943 156.337C150.713 156.107 150.584 155.795 150.584 155.47V153.04V153.026Z" fill="#333333"/>
<path opacity="0.6" d="M150.584 153.026H176.526V155.47C176.526 155.795 176.397 156.107 176.167 156.337C175.937 156.566 175.626 156.696 175.301 156.696H151.809C151.484 156.696 151.173 156.566 150.943 156.337C150.713 156.107 150.584 155.795 150.584 155.47V153.04V153.026Z" fill="white"/>
<path d="M173.523 154.419H171.115V155.289H173.523V154.419Z" fill="#333333"/>
<path d="M169.666 154.419H167.258V155.289H169.666V154.419Z" fill="#333333"/>
<path d="M196.7 156.696H197.939C198.278 156.688 198.604 156.563 198.86 156.34C199.115 156.117 199.285 155.812 199.339 155.477L203.539 129.642C203.572 129.437 203.561 129.228 203.506 129.027C203.451 128.827 203.355 128.64 203.222 128.481C203.089 128.321 202.924 128.191 202.737 128.1C202.551 128.01 202.347 127.96 202.139 127.955L182 127.92L176.554 156.633H177.793L196.7 156.696Z" fill="#333333"/>
<path opacity="0.6" d="M196.7 156.696H197.939C198.278 156.688 198.604 156.563 198.86 156.34C199.115 156.117 199.285 155.812 199.339 155.477L203.539 129.642C203.572 129.437 203.561 129.228 203.506 129.027C203.451 128.827 203.355 128.64 203.222 128.481C203.089 128.321 202.924 128.191 202.737 128.1C202.551 128.01 202.347 127.96 202.139 127.955L182 127.92L176.554 156.633H177.793L196.7 156.696Z" fill="white"/>
<path opacity="0.2" d="M176.869 154.826L176.519 156.661H177.758L196.658 156.696H197.897C198.236 156.688 198.562 156.563 198.818 156.34C199.073 156.117 199.243 155.812 199.297 155.477L199.395 154.868L176.869 154.826Z" fill="#333333"/>
<path d="M176.547 156.682H177.8C178.139 156.674 178.465 156.549 178.72 156.326C178.976 156.103 179.146 155.798 179.2 155.463L183.4 129.614C183.433 129.41 183.422 129.2 183.367 129C183.312 128.8 183.215 128.614 183.083 128.455C182.95 128.296 182.785 128.167 182.598 128.077C182.411 127.987 182.207 127.938 182 127.934L176.547 156.682Z" fill="#333333"/>
<path opacity="0.3" d="M176.547 156.682H177.8C178.139 156.674 178.465 156.549 178.72 156.326C178.976 156.103 179.146 155.798 179.2 155.463L183.4 129.614C183.433 129.41 183.422 129.2 183.367 129C183.312 128.8 183.215 128.614 183.083 128.455C182.95 128.296 182.785 128.167 182.598 128.077C182.411 127.987 182.207 127.938 182 127.934L176.547 156.682Z" fill="white"/>
</svg>
