<svg width="50" height="48" viewBox="0 0 50 48" fill="none" xmlns="http://www.w3.org/2000/svg">
<rect x="0.5" y="0.5" width="49" height="47" rx="23.5" fill="white"/>
<rect x="0.5" y="0.5" width="49" height="47" rx="23.5" stroke="#E7F0FD"/>
<g clip-path="url(#clip0_34_138)">
<path d="M11.9188 18.6844C11.2844 20.2375 11 21.8125 11 24C11 26.2531 11.2844 27.7844 12.0063 29.425C12.5969 30.7813 12.2688 30.8906 15.3313 28.3969C17.1906 26.8875 17.3 26.7563 17.1031 26.2313C16.8406 25.5531 16.775 23.0594 16.9938 22.1188C17.1469 21.4406 17.0813 21.3531 14.8719 19.5375C13.6031 18.5094 12.5313 17.6563 12.4656 17.6563C12.4219 17.6563 12.1594 18.1156 11.9188 18.6844Z" fill="#FFB701"/>
<path d="M21.4344 10.35C19.2469 10.875 16.7531 12.3187 15.0469 14.0469C14.2156 14.9 13.2969 16.0156 13.0125 16.4969L12.5312 17.3937L14.8719 19.3406L17.2125 21.3094L17.7156 20.2812C19.6188 16.4531 24.4312 14.7906 28.4125 16.5406C28.9812 16.8031 29.4625 17 29.4844 17C29.6156 17 33.8594 13.4562 33.925 13.3031C34.1219 12.7781 30.6219 10.8969 28.4781 10.35C26.7281 9.9125 23.2063 9.9125 21.4344 10.35Z" fill="#D7263D"/>
<path d="M14.8938 28.9656C13.7782 29.8844 12.8157 30.6719 12.7719 30.7156C12.5313 30.8906 13.6688 32.5094 15.0907 33.9312C16.8407 35.7031 19.2032 37.0594 21.6094 37.6719C23.2719 38.0875 26.4657 38.0875 28.2813 37.65C29.725 37.3219 32.3719 36.1406 33.2688 35.4187L33.7719 35.025L31.65 33.2969C28.9375 31.0875 29.0688 31.1312 28.3032 31.525C26.5313 32.4656 23.6 32.3781 21.4125 31.35C20.1657 30.7812 18.175 28.9 17.7813 27.9156C17.6282 27.5656 17.3875 27.2812 17.2344 27.2812C17.0813 27.2812 16.0313 28.025 14.8938 28.9656Z" fill="#2BA24C"/>
<path d="M25.2188 24.2188V27.0625H28.9594H32.6781L32.1969 27.9375C31.7156 28.7688 30.425 30.1906 29.55 30.825C29.2 31.0875 29.4187 31.3063 31.5187 33.0125L33.8594 34.8938L34.45 34.4563C35.3469 33.8219 36.9656 31.6344 37.6875 30.0813C38.7156 27.8938 39.0219 26.2969 38.9563 23.7375L38.8906 21.4844L32.0656 21.4188L25.2188 21.375V24.2188Z" fill="#3886E9"/>
</g>
<defs>
<clipPath id="clip0_34_138">
<rect width="28" height="28" fill="white" transform="translate(11 10)"/>
</clipPath>
</defs>
</svg>
