<svg width="100" height="140" viewBox="0 0 100 140" fill="none" xmlns="http://www.w3.org/2000/svg">
<path d="M81.7002 2.7991H7.8837C3.93685 2.7991 0.737305 5.99461 0.737305 9.93647V132.097C0.737305 136.038 3.93685 139.234 7.8837 139.234H81.7002C85.6471 139.234 88.8466 136.038 88.8466 132.097V9.93647C88.8466 5.99461 85.6471 2.7991 81.7002 2.7991Z" fill="#3886E9"/>
<path d="M81.693 140H7.88389C5.79355 139.998 3.78939 139.168 2.3113 137.692C0.833205 136.215 0.00195268 134.214 0 132.126V9.93646C0.00195268 7.84876 0.833205 5.84713 2.3113 4.37091C3.78939 2.89468 5.79355 2.06448 7.88389 2.06253H81.693C83.7847 2.06253 85.7907 2.89187 87.2704 4.3683C88.7501 5.84474 89.5824 7.84749 89.5843 9.93646V132.089C89.5882 133.127 89.3869 134.155 88.9921 135.114C88.5973 136.074 88.0166 136.946 87.2835 137.681C86.5503 138.416 85.6791 138.999 84.7197 139.397C83.7604 139.795 82.7318 140 81.693 140ZM7.88389 3.53567C6.18475 3.53762 4.55576 4.21261 3.35428 5.41257C2.15281 6.61253 1.47695 8.23947 1.475 9.93646V132.089C1.47695 133.786 2.15281 135.413 3.35428 136.613C4.55576 137.813 6.18475 138.488 7.88389 138.49H81.693C83.3935 138.49 85.0243 137.816 86.2274 136.616C87.4305 135.416 88.1074 133.788 88.1093 132.089V9.93646C88.1074 8.23819 87.4305 6.61014 86.2274 5.40997C85.0243 4.2098 83.3935 3.53567 81.693 3.53567H7.88389Z" fill="#333333"/>
<path d="M80.9189 16.573H8.66588C6.60082 16.573 4.92676 18.2449 4.92676 20.3074V119.538C4.92676 121.601 6.60082 123.272 8.66588 123.272H80.9189C82.984 123.272 84.658 121.601 84.658 119.538V20.3074C84.658 18.2449 82.984 16.573 80.9189 16.573Z" fill="white"/>
<path d="M80.9554 124.002H8.68025C7.49425 124.002 6.35672 123.532 5.5174 122.695C4.67808 121.858 4.20557 120.723 4.20361 119.538V20.3074C4.20361 19.1216 4.67526 17.9844 5.51479 17.1459C6.35432 16.3074 7.49298 15.8364 8.68025 15.8364H80.9554C82.1331 15.8519 83.2574 16.3295 84.0854 17.1661C84.9134 18.0027 85.3786 19.1311 85.3804 20.3074V119.538C85.3766 120.713 84.9106 121.84 84.0828 122.675C83.255 123.51 82.1318 123.986 80.9554 124.002ZM8.68025 17.3095C7.88417 17.3095 7.12069 17.6254 6.55778 18.1876C5.99486 18.7498 5.67862 19.5123 5.67862 20.3074V119.538C5.68057 120.332 5.99768 121.093 6.56039 121.653C7.12309 122.214 7.88545 122.529 8.68025 122.529H80.9554C81.7502 122.529 82.5126 122.214 83.0753 121.653C83.638 121.093 83.9551 120.332 83.957 119.538V20.3074C83.957 19.5123 83.6408 18.7498 83.0779 18.1876C82.515 17.6254 81.7515 17.3095 80.9554 17.3095H8.68025Z" fill="#333333"/>
<path d="M33.4239 11.5421C34.0593 11.5421 34.5744 11.0277 34.5744 10.3931C34.5744 9.75849 34.0593 9.24405 33.4239 9.24405C32.7885 9.24405 32.2734 9.75849 32.2734 10.3931C32.2734 11.0277 32.7885 11.5421 33.4239 11.5421Z" fill="#333333"/>
<path d="M57.3115 11.1008H38.9182C38.7226 11.1008 38.535 11.0232 38.3967 10.885C38.2584 10.7468 38.1807 10.5594 38.1807 10.3639C38.1807 10.1685 38.2584 9.98111 38.3967 9.84292C38.535 9.70474 38.7226 9.62711 38.9182 9.62711H57.3115C57.5071 9.62711 57.6946 9.70474 57.8329 9.84292C57.9713 9.98111 58.049 10.1685 58.049 10.3639C58.049 10.5594 57.9713 10.7468 57.8329 10.885C57.6946 11.0232 57.5071 11.1008 57.3115 11.1008Z" fill="#333333"/>
<path d="M44.7887 135.654C47.4648 135.654 49.6341 133.488 49.6341 130.815C49.6341 128.142 47.4648 125.976 44.7887 125.976C42.1127 125.976 39.9434 128.142 39.9434 130.815C39.9434 133.488 42.1127 135.654 44.7887 135.654Z" fill="#333333"/>
<path d="M17.376 96.3066H72.2092V61.2754L44.7889 43.5314L17.376 61.2754V96.3066Z" fill="#FFB701"/>
<path d="M72.2089 97.0432H17.3757C17.1801 97.0432 16.9925 96.9656 16.8542 96.8275C16.7159 96.6894 16.6382 96.502 16.6382 96.3067V61.2754C16.6384 61.1522 16.6696 61.0309 16.7288 60.9228C16.7881 60.8147 16.8736 60.7232 16.9774 60.6567L44.3904 42.9127C44.51 42.835 44.6496 42.7937 44.7923 42.7937C44.935 42.7937 45.0746 42.835 45.1942 42.9127L72.6072 60.6567C72.711 60.7232 72.7965 60.8147 72.8558 60.9228C72.9151 61.0309 72.9462 61.1522 72.9464 61.2754V96.3067C72.9464 96.502 72.8687 96.6894 72.7304 96.8275C72.5921 96.9656 72.4045 97.0432 72.2089 97.0432ZM18.1132 95.5701H71.4714V61.6879L44.8181 44.4079L18.1427 61.6805L18.1132 95.5701Z" fill="#333333"/>
<path d="M68.1231 52.6575H21.4614V94.0085H68.1231V52.6575Z" fill="white"/>
<path d="M68.1229 94.7451H21.4611C21.2655 94.7451 21.0779 94.6675 20.9396 94.5294C20.8013 94.3913 20.7236 94.2039 20.7236 94.0086V52.6575C20.7236 52.4622 20.8013 52.2748 20.9396 52.1367C21.0779 51.9986 21.2655 51.921 21.4611 51.921H68.1229C68.3185 51.921 68.506 51.9986 68.6444 52.1367C68.7827 52.2748 68.8604 52.4622 68.8604 52.6575V94.0086C68.8604 94.2039 68.7827 94.3913 68.6444 94.5294C68.506 94.6675 68.3185 94.7451 68.1229 94.7451ZM22.1986 93.272H67.3854V53.3941H22.1986V93.272Z" fill="#333333"/>
<path d="M61.1315 61.3201H28.4528C28.2572 61.3201 28.0696 61.2425 27.9313 61.1043C27.793 60.9661 27.7153 60.7787 27.7153 60.5833C27.7153 60.3879 27.793 60.2004 27.9313 60.0623C28.0696 59.9241 28.2572 59.8464 28.4528 59.8464H61.1315C61.3271 59.8464 61.5147 59.9241 61.653 60.0623C61.7913 60.2004 61.869 60.3879 61.869 60.5833C61.869 60.7787 61.7913 60.9661 61.653 61.1043C61.5147 61.2425 61.3271 61.3201 61.1315 61.3201Z" fill="#CECECE"/>
<path d="M61.1315 67.1316H28.4528C28.2572 67.1316 28.0696 67.054 27.9313 66.9158C27.793 66.7776 27.7153 66.5902 27.7153 66.3948C27.7153 66.1994 27.793 66.012 27.9313 65.8738C28.0696 65.7356 28.2572 65.658 28.4528 65.658H61.1315C61.3271 65.658 61.5147 65.7356 61.653 65.8738C61.7913 66.012 61.869 66.1994 61.869 66.3948C61.869 66.5902 61.7913 66.7776 61.653 66.9158C61.5147 67.054 61.3271 67.1316 61.1315 67.1316Z" fill="#CECECE"/>
<path d="M61.1315 72.9726H28.4528C28.2572 72.9726 28.0696 72.895 27.9313 72.7568C27.793 72.6186 27.7153 72.4312 27.7153 72.2358C27.7153 72.0404 27.793 71.853 27.9313 71.7148C28.0696 71.5766 28.2572 71.499 28.4528 71.499H61.1315C61.3271 71.499 61.5147 71.5766 61.653 71.7148C61.7913 71.853 61.869 72.0404 61.869 72.2358C61.869 72.4312 61.7913 72.6186 61.653 72.7568C61.5147 72.895 61.3271 72.9726 61.1315 72.9726Z" fill="#CECECE"/>
<path d="M61.1315 78.7474H28.4528C28.2572 78.7474 28.0696 78.6697 27.9313 78.5316C27.793 78.3934 27.7153 78.2059 27.7153 78.0105C27.7153 77.8151 27.793 77.6277 27.9313 77.4895C28.0696 77.3513 28.2572 77.2737 28.4528 77.2737H61.1315C61.3271 77.2737 61.5147 77.3513 61.653 77.4895C61.7913 77.6277 61.869 77.8151 61.869 78.0105C61.869 78.2059 61.7913 78.3934 61.653 78.5316C61.5147 78.6697 61.3271 78.7474 61.1315 78.7474Z" fill="#CECECE"/>
<path d="M72.2092 96.3066H17.376V61.2754L72.2092 96.3066Z" fill="#FFB701"/>
<path d="M72.2089 97.0432H17.3757C17.1801 97.0432 16.9925 96.9656 16.8542 96.8275C16.7159 96.6893 16.6382 96.502 16.6382 96.3066V61.2754C16.6384 61.1433 16.6742 61.0136 16.7418 60.9001C16.8094 60.7865 16.9064 60.6932 17.0225 60.63C17.1387 60.5667 17.2697 60.5358 17.4019 60.5405C17.5341 60.5452 17.6626 60.5853 17.7739 60.6567L72.6072 95.6879C72.7408 95.7741 72.8429 95.9011 72.8983 96.05C72.9537 96.1989 72.9595 96.3617 72.9147 96.5141C72.8699 96.6665 72.777 96.8004 72.6498 96.8957C72.5226 96.9911 72.368 97.0428 72.2089 97.0432ZM18.1132 95.5701H69.6867L18.1132 62.6601V95.5701Z" fill="#333333"/>
<path d="M17.376 96.3066H72.2092V61.2754L17.376 96.3066Z" fill="#FFB701"/>
<path d="M72.209 97.0432H17.3757C17.2167 97.0428 17.0621 96.9911 16.9349 96.8957C16.8077 96.8004 16.7148 96.6665 16.67 96.5141C16.6252 96.3617 16.6309 96.1989 16.6864 96.05C16.7418 95.9011 16.8439 95.7741 16.9775 95.6879L71.8107 60.6567C71.9221 60.5853 72.0506 60.5452 72.1828 60.5405C72.315 60.5358 72.446 60.5667 72.5621 60.63C72.6782 60.6932 72.7752 60.7865 72.8428 60.9001C72.9105 61.0136 72.9462 61.1433 72.9465 61.2754V96.3066C72.9465 96.502 72.8688 96.6893 72.7305 96.8275C72.5921 96.9656 72.4046 97.0432 72.209 97.0432ZM19.898 95.5701H71.4715V62.6601L19.898 95.5701Z" fill="#333333"/>
<path d="M72.2087 97.0432C72.0681 97.045 71.93 97.0067 71.8105 96.9327L44.3902 79.4171C44.2249 79.3116 44.1083 79.1448 44.0661 78.9535C44.024 78.7622 44.0596 78.562 44.1652 78.3969C44.2708 78.2319 44.4378 78.1154 44.6294 78.0733C44.8209 78.0312 45.0214 78.0668 45.1867 78.1723L72.607 95.6879C72.771 95.7936 72.8865 95.9599 72.9279 96.1505C72.9694 96.341 72.9336 96.5402 72.8282 96.7044C72.7616 96.8081 72.67 96.8935 72.5617 96.9527C72.4535 97.0119 72.3321 97.043 72.2087 97.0432Z" fill="#333333"/>
<path d="M82.1797 0.825047C78.7361 0.82256 75.3728 1.86423 72.5348 3.81226C69.6967 5.76029 67.5177 8.5229 66.2859 11.7346C65.0541 14.9464 64.8275 18.456 65.6362 21.7991C66.4449 25.1422 68.2508 28.1614 70.8148 30.4573V39.3992L75.8667 33.5951C78.1947 34.525 80.6996 34.9297 83.2024 34.78C85.7052 34.6303 88.144 33.9301 90.3442 32.7293C92.5444 31.5285 94.4517 29.857 95.9296 27.8341C97.4075 25.8113 98.4195 23.4873 98.8932 21.0283C99.367 18.5693 99.2907 16.0361 98.6698 13.61C98.049 11.1838 96.8989 8.92476 95.3019 6.99432C93.7049 5.06389 91.7005 3.50982 89.432 2.4433C87.1635 1.37679 84.687 0.824193 82.1797 0.825047Z" fill="#2BA24C"/>
<path d="M70.8148 40.1358C70.7261 40.1366 70.6382 40.1191 70.5567 40.0843C70.4167 40.032 70.2959 39.9386 70.2103 39.8162C70.1247 39.6939 70.0783 39.5485 70.0773 39.3993V30.7814C66.8475 27.778 64.8503 23.6831 64.4733 19.2918C64.0963 14.9004 65.3665 10.5258 68.0372 7.01714C70.7079 3.50845 74.5887 1.11599 78.9262 0.304155C83.2638 -0.507675 87.7486 0.319044 91.5102 2.62384C95.2717 4.92863 98.0417 8.54708 99.2823 12.7768C100.523 17.0065 100.146 21.5457 98.2241 25.5133C96.3023 29.4809 92.9731 32.5939 88.8826 34.2479C84.7921 35.9019 80.2321 35.979 76.0879 34.4642L71.3679 39.878C71.2995 39.9579 71.2147 40.0223 71.1193 40.0668C71.0239 40.1112 70.9201 40.1348 70.8148 40.1358ZM82.1797 1.56165C78.8865 1.56267 75.6711 2.56133 72.9581 4.42574C70.2452 6.29015 68.1623 8.9326 66.9845 12.0041C65.8068 15.0756 65.5896 18.4316 66.3617 21.629C67.1338 24.8263 68.8588 27.7146 71.3089 29.9122C71.3853 29.9811 71.4464 30.0652 71.4884 30.159C71.5303 30.2529 71.5521 30.3545 71.5523 30.4573V37.4252L75.3136 33.1089C75.4139 32.9948 75.5471 32.9144 75.695 32.8788C75.8429 32.8432 75.9981 32.8541 76.1396 32.9101C78.3666 33.8002 80.7632 34.1878 83.1577 34.0449C85.5522 33.9021 87.8856 33.2324 89.9907 32.0838C92.0959 30.9352 93.9208 29.3361 95.3349 27.4009C96.749 25.4657 97.7174 23.2422 98.1707 20.8896C98.624 18.537 98.551 16.1134 97.957 13.7923C97.363 11.4711 96.2626 9.30977 94.7346 7.46292C93.2066 5.61607 91.2888 4.12936 89.1183 3.10917C86.9479 2.08898 84.5785 1.56054 82.1797 1.56165Z" fill="#333333"/>
<path d="M81.4421 14.7831L79.1189 16.8234L77.7324 15.225L81.5084 12.043H83.7947V23.6219H81.4421V14.7831Z" fill="white"/>
<path d="M31.1521 42.2056C30.9675 42.2063 30.7893 42.1379 30.6528 42.0138C30.5162 41.8897 30.4312 41.719 30.4146 41.5353L29.7877 34.3464C29.7714 34.1521 29.8329 33.9592 29.9587 33.8101C30.0845 33.661 30.2644 33.5678 30.4589 33.5509C30.6534 33.5346 30.8465 33.596 30.9959 33.7216C31.1452 33.8473 31.2385 34.0269 31.2554 34.2212L31.8823 41.4101C31.8986 41.6044 31.8371 41.7973 31.7113 41.9464C31.5855 42.0955 31.4056 42.1887 31.2111 42.2056H31.1521Z" fill="#CECECE"/>
<path d="M24.5076 44.2459C24.3822 44.2461 24.2589 44.2145 24.1492 44.1539C24.0395 44.0933 23.9471 44.0059 23.8807 43.8997L19.0058 36.1436C18.9546 36.061 18.9203 35.9691 18.9049 35.8732C18.8894 35.7773 18.8931 35.6793 18.9157 35.5848C18.9384 35.4903 18.9795 35.4013 19.0367 35.3227C19.0939 35.2442 19.1661 35.1777 19.2492 35.1272C19.4156 35.0263 19.6153 34.9952 19.8045 35.0407C19.9938 35.0863 20.1574 35.2047 20.2596 35.3702L25.105 43.1631C25.1565 43.2453 25.1912 43.3368 25.2072 43.4324C25.2232 43.528 25.2202 43.6259 25.1982 43.7203C25.1763 43.8147 25.1359 43.9039 25.0794 43.9827C25.0229 44.0616 24.9514 44.1285 24.8689 44.1796C24.756 44.2318 24.6317 44.2546 24.5076 44.2459Z" fill="#CECECE"/>
<path d="M19.2635 48.7389C19.1311 48.7389 19.0012 48.7033 18.8874 48.6358L13.0537 45.1445C12.9061 45.0372 12.8035 44.8791 12.7659 44.7006C12.7282 44.5222 12.7582 44.3362 12.8499 44.1786C12.9417 44.0209 13.0887 43.9029 13.2626 43.8473C13.4365 43.7917 13.6249 43.8025 13.7912 43.8776L19.6249 47.3689C19.7644 47.4516 19.8727 47.5779 19.9331 47.7282C19.9935 47.8786 20.0025 48.0447 19.9589 48.2007C19.9152 48.3567 19.8212 48.494 19.6915 48.5913C19.5618 48.6886 19.4036 48.7405 19.2414 48.7389H19.2635Z" fill="#CECECE"/>
</svg>
