<svg width="18" height="19" viewBox="0 0 18 19" fill="none" xmlns="http://www.w3.org/2000/svg">
<path d="M8.14405 4.03448C8.41347 3.2053 9.58654 3.2053 9.85596 4.03448L10.8186 6.9971C10.9391 7.36792 11.2846 7.61898 11.6745 7.61898H14.7896C15.6614 7.61898 16.0239 8.73464 15.3186 9.2471L12.7985 11.0781C12.483 11.3073 12.351 11.7135 12.4715 12.0843L13.4341 15.0469C13.7035 15.8761 12.7545 16.5656 12.0492 16.0532L9.52901 14.2222C9.21357 13.993 8.78644 13.993 8.471 14.2222L5.95084 16.0532C5.2455 16.5656 4.29647 15.8761 4.56589 15.0469L5.5285 12.0843C5.64899 11.7135 5.51699 11.3073 5.20156 11.0781L2.6814 9.2471C1.97606 8.73464 2.33856 7.61898 3.21041 7.61898H6.32549C6.71539 7.61898 7.06095 7.36792 7.18144 6.9971L8.14405 4.03448Z" fill="#FFB701"/>
</svg>
